<svg xmlns="http://www.w3.org/2000/svg" viewBox="0 0 964 310"><g fill="#2c2c2c"><path d="M31.11 232.34c25.89-15.11 49.39-33.49 67.69-58.46 17.55-24 26.11-50.84 19-81.55-3.66-15.73-12.36-28.61-21.62-41-2-2.68-5.07-4.46-7.65-6.65-.89 3.32-2.3 6.54-2.53 9.87a338.27 338.27 0 01-14 75.45c-11.41 37.92-28.66 72.32-53.2 102.41a74.55 74.55 0 00-4.55 6.93l1.48 1.77c5.14-2.94 10.27-5.8 15.38-8.77zM174.63 220.06c-10.09-12.17-23.82-15.82-39.28-16.46-2.52.26-5.84.45-9.12 1a219.3 219.3 0 00-72.83 25.25c-16.64 9.24-32.14 20.84-48 31.56-1.2.81-1.59 3-2.35 4.59 1.53-.1 3.07-.12 4.59-.33a9.46 9.46 0 002.06-.83c35.4-14 71.36-25.72 109.14-29.45 20.29-2 40.58-2.58 59.92 6.48 1.16.55 3.45.58 4-.19a5.71 5.71 0 00.72-4.75c-2.7-5.79-4.94-12.15-8.85-16.87zM180.52 188.38c-18.08-23-31.54-49.19-42.23-77-.71-1.86-2.25-3.36-3.41-5-1.39 1.62-3.25 3-4.1 4.9-7.85 17.49-6 34.64 2.36 51.23 12 23.64 31.06 39.48 52.05 52.92 9.9 6.33 20.35 11.69 30.54 17.5.57-.73 1.13-1.47 1.69-2.2-1.23-1.63-2.37-3.37-3.72-4.89-11.08-12.48-22.87-24.31-33.18-37.46zM253 82.75a23.57 23.57 0 0011.12-19.91 19.39 19.39 0 00-2.55-9.84 16.46 16.46 0 00-7.7-6.79c-3.3-1.48-9.41-2.2-18.66-2.2h-21.28v82.73h23.8c8.56 0 14.48-1 18.09-3.21a22.4 22.4 0 008.35-8.66 24 24 0 002.94-11.57 22.38 22.38 0 00-4.28-13.38 21.27 21.27 0 00-9.83-7.17zm-3.66-11.38a13.39 13.39 0 01-5 5.18c-2.11 1.22-5.44 1.83-9.91 1.83h-7.57v-22.91h10.81c5.3 0 8.94.92 10.82 2.71a8.33 8.33 0 012.75 6.27 14.1 14.1 0 01-1.87 6.92zm-10.59 43.89h-11.88v-25.41h5.48c6.1 0 10.6.71 13.36 2.11a15.23 15.23 0 016.12 5.26 12.33 12.33 0 012 6.82 11.21 11.21 0 01-3.07 7.89c-2.03 2.21-6.06 3.33-11.98 3.33zM372.48 114.44h-34.71v-25.3h28.09v-11.47h-28.09v-21.38h32.14v-12.29h-45.09v82.73h47.66zM442.76 92.71h7.41a44.4 44.4 0 018.83 12.29l10.67 21.76h14.82l-13.08-26c-.87-1.7-1.91-3.54-3.07-5.47a27.58 27.58 0 00-3.14-4.43 12.77 12.77 0 00-1.2-1.21 23.69 23.69 0 007.08-5.23 27.66 27.66 0 005-8.24 26.19 26.19 0 001.79-9.58 25.37 25.37 0 00-2.68-11.54 19.84 19.84 0 00-7.35-8.22c-3.13-1.91-7.54-2.84-13.51-2.84h-24.52v82.73h12.95zm0-37.24h8.45c5.06 0 7.39.92 8.46 1.69a11.44 11.44 0 013.66 4.28 13.29 13.29 0 011.24 5.84 16.5 16.5 0 01-1.63 7.23 11.83 11.83 0 01-4.26 5c-1.78 1.14-4.54 1.72-8.19 1.72h-7.73zM565.11 114.85h11.88l13.54-36.41 1.61-4.77-.06 53.06h11.85v-82.73h-12.11l-20.06 53.71-21.77-53.71h-12.24v82.73h11.47v-49.13l-.04-2.93 1.26 3.69zM691.5 129.13c5.93 0 11-1.17 14.93-3.48a23.82 23.82 0 009.25-9.56c2.15-4 3.19-10.72 3.19-20.37v-51.72h-12.18v49.1c0 11-1 15.48-1.77 17.28a10.73 10.73 0 01-5.06 5.46 18.22 18.22 0 01-8.31 1.82 21 21 0 01-8.91-1.84 11.4 11.4 0 01-5.53-5c-.82-1.54-1.8-5.24-1.8-14v-52.82h-12.95v54.07c0 9.17 1.13 15.56 3.47 19.54a20.73 20.73 0 0010.62 8.81 40.7 40.7 0 0015.05 2.71zM822.7 121.28a32.79 32.79 0 0011.2-14.73 58.25 58.25 0 003.63-21.49c0-8.76-1.36-16.31-4-22.46s-6.57-11-11.45-14-12.36-4.6-22.69-4.6h-22.09v82.73h23.42c9.6 0 17-1.83 21.98-5.45zm-32.45-6.84v-59h9.44c6.95 0 12.06 1.09 15.19 3.24s5.43 5.51 7 10.06a54 54 0 012.41 17.13c0 6.6-.88 12.13-2.61 16.43a18.41 18.41 0 01-7.21 9.16c-3.18 2-8.06 3-14.5 3zM931.78 44h-12l-31.62 82.73h12.51l8.33-21.73h30.38l7.67 21.78h13.95zm3.54 49.48h-22.05l11.41-30.11zM361.33 205.6l-4.51-2.09a81.53 81.53 0 01-9.32-4.94 12.13 12.13 0 01-3.9-4.17 10.45 10.45 0 01-1.38-5.24 10.77 10.77 0 012.93-7.42c1.93-2.16 5.05-3.25 9.28-3.25a21.23 21.23 0 015.93.78 6.57 6.57 0 013.5 2.14 4.43 4.43 0 011.07 2.69v2.3h12.95v-2.3a16.37 16.37 0 00-5.25-12c-3.49-3.4-9.18-5-17.39-5-8.81 0-15.44 2.24-19.69 6.68a22.94 22.94 0 00-6.42 16.44 23.88 23.88 0 002.07 10 24.3 24.3 0 006.22 8.12 48.46 48.46 0 0012.15 7.14l3.85 1.68a41.36 41.36 0 0110.68 6.25 9.14 9.14 0 013.07 7.16 11.55 11.55 0 01-3.68 9 13.28 13.28 0 01-9.49 3.43c-4.49 0-8.09-.79-10.72-2.35-2.34-1.39-3.47-3.88-3.47-7.6v-2.29h-12.92v2.29a22.25 22.25 0 003.11 11.56 17.94 17.94 0 009.28 7.67 40.88 40.88 0 0014.39 2.21c6 0 11-1 14.71-3.07a21.93 21.93 0 008.87-9.17 26.31 26.31 0 003.17-12.43 23.46 23.46 0 00-3.92-13c-2.61-4.02-7.58-7.69-15.17-11.22zM462 169.36l-31.67 82.74h12.5l8.34-21.78h30.39l7.66 21.78h13.94l-29.22-82.74zm15.53 49.48h-22.1l11.41-30.11zM602.58 226.15l-34.09-56.79h-12.1v82.74h12.19v-57.03l34.18 57.03h12v-82.74h-12.18zM719.07 173.94c-4.91-3.08-12.31-4.58-22.64-4.58h-22.1v82.74h23.43c9.59 0 17-1.84 22-5.46a32.84 32.84 0 0011.19-14.73 58.25 58.25 0 003.63-21.49c0-8.75-1.36-16.31-4-22.46s-6.58-10.96-11.51-14.02zm2.21 37.33c0 6.59-.87 12.12-2.6 16.42a18.48 18.48 0 01-7.22 9.16c-3.18 2-8.05 3-14.5 3h-9.68v-59h9.45c6.95 0 12.06 1.09 15.19 3.24s5.42 5.5 7 10a54.39 54.39 0 012.36 17.18zM824.14 205.6l-4.5-2.09a81 81 0 01-9.33-4.94 12.23 12.23 0 01-3.9-4.17 10.45 10.45 0 01-1.38-5.24 10.74 10.74 0 012.94-7.42c1.93-2.16 5-3.25 9.28-3.25a21.23 21.23 0 015.93.78 6.61 6.61 0 013.5 2.14 4.43 4.43 0 011.07 2.69v2.3h12.94v-2.3a16.33 16.33 0 00-5.25-12c-3.49-3.4-9.18-5-17.38-5-8.82 0-15.44 2.24-19.69 6.68a22.91 22.91 0 00-6.43 16.44 23.73 23.73 0 002.08 10 24.27 24.27 0 006.21 8.12c2.7 2.37 6.79 4.77 12.15 7.14l3.85 1.68a41.18 41.18 0 0110.68 6.25 9.15 9.15 0 013.08 7.16 11.56 11.56 0 01-3.69 9 13.27 13.27 0 01-9.46 3.5c-4.48 0-8.09-.79-10.71-2.35-2.34-1.39-3.48-3.88-3.48-7.6v-2.29h-12.95v2.29a22.16 22.16 0 003.15 11.54 17.88 17.88 0 009.27 7.67 40.88 40.88 0 0014.39 2.21c6 0 11-1 14.71-3.07a21.9 21.9 0 008.88-9.17 26.43 26.43 0 003.17-12.43 23.54 23.54 0 00-3.92-13c-2.65-4.07-7.62-7.74-15.21-11.27z"/></g></svg>