<svg xmlns="http://www.w3.org/2000/svg" viewBox="0 0 615 310"><g fill="#2c2c2c"><path d="M377.8 189.66c-1.14 2.75-1.92 5.73-3.48 8.22-9.65 15.46-19.49 30.82-29.25 46.22q-16.79 26.54-33.56 53.07a21.4 21.4 0 01-2.75 3.58c-5 5.07-10.6 5.06-15.58 0a19.63 19.63 0 01-2.63-3.27q-30.62-48.22-61.12-96.48c-2-3.21-3.28-7-4.6-10.56-1-2.83 0-5.34 2.36-7.17a6.3 6.3 0 017.32-.41 31.84 31.84 0 017.43 5.61q24.69 26.55 49.11 53.34c7.79 8.56 11.87 8.6 19.69.06q24.79-27.11 49.84-54a23.7 23.7 0 016.69-5c5.34-2.68 10.12.6 10.53 6.79zM355.39 44.85c-1.21-2.62-2.42-5.23-3.61-7.85-.29-.64-.85-1.46-.65-1.93a2.57 2.57 0 011.81-1c5.73-.93 18.36 5.47 20.6 10.83a15 15 0 01.8 7.52c-2.48 17.07-5.18 34.11-7.84 51.15-.67 4.29-.22 7.94 4.37 10a57.3 57.3 0 015.5 3.39c3.15 1.85 4.31 1.52 5.41-2.06q2.85-9.27 5.27-18.67 3-11.43 5.58-22.94c1.07-4.71 1-9.24-3.14-12.77-1.55-1.33-1.19-2.64.5-3.6 3.66-2.08 7.34-4.11 11-6.17 2-1.1 3.59-.76 5.18.93 6.37 6.8 8.95 14.38 6.28 23.72-3.49 12.23-6.47 24.6-9.67 36.91-1.42 5.45-1.27 5.87 3.25 9.12l6.84 4.91c1.57 1.12 2.68 1.07 3.36-1 4.94-15.4 10-30.76 14.87-46.17a11 11 0 00-1.79-10.13c-2.15-3.06-1.86-3.69 1.61-5.14s6.8-2.75 10.15-4.22c2.38-1 4.05-.46 5.58 1.59 5.49 7.35 6.55 15.53 3.83 24-5.39 16.72-11.21 33.29-16.86 49.93-.66 1.94-1.82 3.12-4.08 2.81-7.22-1-14 .81-20.31 4-3.22 1.61-5.66 1.53-8.52-.81-4.33-3.56-9-6.7-13.55-10a9.11 9.11 0 00-10.61-.66c-1.78 1-3.66 1.85-5.44 2.87-2.24 1.28-4.15.95-5.7-1.07-5.75-7.45-13.8-11.51-22.15-15.16a17.09 17.09 0 01-2.81-2c.72-1 1.44-2 2.15-3 1.38-2 3.67-3.81 4-5.93 2.84-19.86 5.34-39.76 7.93-59.64a11.28 11.28 0 000-1.3zM65 209.45c-17.46-1.26-36-7-47.64-25.26-18.09-28.39-15.36-64.47 13.25-89.07a33.94 33.94 0 0117.44-7.9c4.59-.7 9.15-1.56 13.75-2.17 5-.66 10-1.35 14.35-4.42a9.45 9.45 0 013-1.29c3-.84 4.71.14 5.12 3.17 1.35 10.1-4.09 19.14-15.56 19.25a65.65 65.65 0 00-15.94 1.9c-7.18 1.87-10.08 6.93-8 14.08a90.59 90.59 0 007 16.26c3.85 7.36 8.61 14.39 9.8 22.73.7 4.9 0 10-.35 15-.25 3.09-1.38 6.1-1.71 9.19-.53 5 2.1 8.6 7.07 9.1 12.19 1.25 22.82-2.88 31.66-11 3.81-3.51 6.48-8.26 9.65-12.46a83.22 83.22 0 015-6.69 5.1 5.1 0 016.78-1c2.63 1.59 2.7 3.93 1.7 6.5-4.75 12.07-10.89 23.26-20.73 32-9.3 8.26-20.22 12.2-35.64 12.08zm-46.68-66.69c.42 14.66 6.77 26.11 17.69 35.17a16 16 0 005.69 2.95c6 1.74 8.76-1 7.28-7a14.07 14.07 0 00-.71-2.48c-4.44-9.7-8.74-19.46-13.42-29a21.63 21.63 0 01-1.76-16 21.53 21.53 0 001.18-7c-.15-2-1.45-4-2.25-6-1.73 1.07-3.94 1.77-5.11 3.28-5.99 7.69-8.09 16.76-8.59 26.08zM523.86 205.32c-2 2.67-3.37 5.49-5.58 7.41a57.17 57.17 0 01-11.72 8.33c-5 2.44-9.35.15-13.17-3.83s-8.57-7.42-13.17-10.71c-2.48-1.77-2.82-2-.53-4.13l.24-.22c8.57-7.76 15.57-6.87 24.6 3.14.71.78 1.38 1.62 2.34 2.75 2.41-3.52 4.52-7 3.55-11.14-2.29-9.65.61-18.16 5.33-26.23 6.21-10.62 12.72-21.05 19.09-31.57 2.83-4.66 2.72-5.08-1.5-8.39-.7-.55-1.71-1.8-1.52-2.17a3.85 3.85 0 012.36-1.79c5.18-1 10.37-2 15.6-2.79 3.51-.51 5.85 1.33 7.22 5.53 2.11 6.47.37 12.27-3.3 17.74q-9.83 14.66-19.49 29.39a85.12 85.12 0 00-4.78 8.07 4.59 4.59 0 00-.28 3.56c.27.58 2.09.73 3.16.61 15.67-1.77 33.26-14.19 33.52-38.45 0-5.5.69-6 6.07-6.42 2.58-.17 5.15-.51 7.73-.7 3.87-.28 5.36 1.07 5.52 4.91.57 13.21-3.24 24.88-12.12 34.8a100.93 100.93 0 01-22.44 18.91c-8.44 5.2-17.04 8.61-26.73 3.39zM143.26 105.67c-2.53-5.74-4.34-10.72-6.92-15.26-.87-1.54-3.68-2.77-5.6-2.78-6.35 0-12.7.57-19.05.93a22.81 22.81 0 01-4.19.21 17.39 17.39 0 01-3.62-1.33 13.31 13.31 0 012.62-2.72c3.36-1.91 6.23-4.14 7.83-7.84a8.5 8.5 0 017.76-5.5c6.45-.3 12.93-.77 19.37-.49 6.12.27 10.54 3.27 13.06 9.37 6.31 15.23 13 30.3 19.59 45.42 1.85 4.25 3.16 4.55 7.15 2.33 1-.57 2.51-.34 3.78-.47 0 1.2.36 2.59-.11 3.57-2.55 5.35-5.28 10.62-8 15.88-1.62 3.14-3.28 3.8-6.25 1.92-3.35-2.13-6.43-4.69-9.61-7.1-3.39-2.57-4.77-2.46-6.92 1.29-2.57 4.48-4.83 9.14-7.22 13.73s-4.15 5.41-9.09 4.72c-12.58-1.74-21.49-13.13-21.19-27.22.18-8.29 2.41-16.16 5.36-23.85 1.29-3.34 3.43-5.18 7.38-4.88 4.34.32 8.74.07 13.87.07zm-5.38 7.18c-1.73 0-3.45 0-5.17 0-3.68.08-5 1.13-4.91 4.79.1 6.76 1.75 13.25 6.77 18 2.87 2.7 6.82 4.3 10.41 6.13a3.71 3.71 0 003.18-.64c3.87-3.18 5.22-9.46 3.28-14.17-.94-2.29-1.85-4.59-2.77-6.89-2.97-7.42-2.97-7.42-10.79-7.22zM303.1 75.38c0-5.26.06-10.1 0-14.94-.05-3.36-2.06-5.29-5.11-6.3q-10-3.3-19.94-6.63a10.28 10.28 0 01-2.7-1 9.32 9.32 0 01-1.67-2.12c.72-.51 1.41-1.41 2.16-1.45a18.92 18.92 0 0012.53-5.2c2.35-2.26 5.51-2.48 8.53-1.45 5.6 1.92 11.25 3.78 16.67 6.13 6.47 2.8 9.87 7.52 9.87 15.12 0 16.17.62 32.33 1 48.5.11 4.57 1.27 5.44 5.74 5 1.2-.13 2.48.56 3.72.88-.58 1.24-.87 2.8-1.8 3.66-4.11 3.81-8.4 7.43-12.63 11.1-3.06 2.65-4.94 2.6-7.23-.66-2.1-3-3.84-6.24-5.68-9.41-2.38-4.12-3.78-4.5-7.56-1.47s-7.57 6.42-11.32 9.66c-3.9 3.36-6.38 3.44-10.8.83-12.78-7.51-13.61-23.54-8.69-33.09 3.61-7 8.67-13.31 13.4-19.68 2.32-3.12 5.49-4 9.44-2s7.97 2.99 12.07 4.52zm.07 18.19a60.63 60.63 0 00-.1-7.75 4.75 4.75 0 00-2.18-3.28c-3.41-1.58-7.08-2.59-10.54-4.09-2.57-1.11-4.36-.27-5.28 2a33.69 33.69 0 00-2.29 8c-1.2 8.39 1.2 15.57 7.83 21.09 1.46 1.22 3 2.12 4.94.77 4.5-3.14 8.94-6.25 7.66-12.86a21.71 21.71 0 01-.04-3.88z"/><path d="M491.33 124.93c2.46-5.19 4.76-9.81 6.86-14.52 1.31-3-.32-5.21-2.28-7.21-4.91-5-9.87-10-14.8-15a9.47 9.47 0 01-1.9-2.17 2.69 2.69 0 01-.11-2.32 2.36 2.36 0 012.25-.41c4.58 2.32 9.17 2.18 14.14 1.24a9.72 9.72 0 017.33 2.24 135.68 135.68 0 0113.43 14.42c4 5 4.22 10.42 1.28 16.35-7.32 14.79-14.29 29.75-21.36 44.66-1.77 3.74-1 5.05 3 6.43 1.18.41 2 1.74 3.05 2.65-1 .77-2 1.92-3.13 2.25-5.49 1.55-11.05 2.9-16.59 4.29-3.84 1-5.55 0-6-4-.47-3.74-.54-7.52-.77-11.29-.24-4-1.35-5.12-5.3-4.4-4.87.9-9.68 2.16-14.49 3.38-6 1.53-8.09.6-11.19-4.63-6.29-10.63-2.61-22 4.43-29.83 6.74-7.51 15.84-11.45 25.16-14.74 3-1.06 5.58-.33 7.75 2.33 2.73 3.44 5.85 6.58 9.24 10.28zm-28.87 16.76c.52 1.9 1.26 5 2.25 8.07a4.74 4.74 0 002 2.44c2.51 1.42 11.39-1.61 12.73-4.25 2.4-4.71 4.67-9.47 7.14-14.14a2.72 2.72 0 00-.45-3.69c-2.54-2.64-5.09-5.29-7.41-8.12-2-2.48-4.13-2.61-6.37-.65-5.79 5.03-9.35 11.23-9.89 20.34zM258.68 128.68c-.38.55-.81 1.9-1.65 2.24a3.63 3.63 0 01-3.21-.5c-6.18-5.9-14.17-6.91-22-8.53a4.76 4.76 0 01-2.79-1.72c-.26-.39 1-1.64 1.31-2.57.95-2.76 2.87-5.72 2.5-8.32-2.63-18.47-5.93-36.84-8.58-55.3-1.17-8.17-2.38-16.58-1.7-24.73.95-11.23 8-19.28 17.55-25 1-.61 2.73 0 4.12 0-.25 1.36-.06 3.06-.82 4-3.71 4.6-4.25 9.75-3.27 15.29q8.86 50.19 17.74 100.36c.25 1.38.46 2.77.8 4.78zM190.83 14.29a18.47 18.47 0 01-1.08 2.61c-3.61 5.33-3.2 10.86-1.33 16.71 6.31 19.71 12.42 39.49 18.66 59.23 4.07 12.85 8.23 25.67 12.34 38.5a18.28 18.28 0 01.81 2.8c.43 2.72-1.65 4.62-3.85 3.1-7.39-5.1-15.77-5.31-24.18-5.73-2.33-.12-3.19-1.72-1.76-3.47 2.7-3.31 2.8-6.95 1.68-10.7-5-16.64-10.14-33.21-14.94-49.88-2.3-7.95-4.78-16-5.66-24.16-1.3-12 4.57-21.38 13.39-29.06.72-.63 1.7-1.41 2.5-1.35 1.16.11 2.26.89 3.42 1.4zM592.64 148.7a8.85 8.85 0 119 8.92 8.63 8.63 0 01-9-8.92zm13.44 4.88a6.4 6.4 0 00.71-9.5 7.07 7.07 0 10-10.21 9.77 6.49 6.49 0 009.58-.33z"/><path d="m606.16 153.52a2.7 2.7 0 0 1 -3.56-1.79 17.19 17.19 0 0 0 -2.25-3c-.51 2.17-.83 3.51-1.14 4.85h-1c-.89-3-.21-6.17-.41-10.3a57.09 57.09 0 0 1 7.93 2.22c.32.14-.48 2.92-.76 4.48h-1l2.05 3.56zm-4.67-5.06 2.51-1.46c-.79-.52-1.54-1.34-2.38-1.45-.58-.07-1.28.86-1.92 1.34z"/></g></svg>