<svg xmlns="http://www.w3.org/2000/svg" viewBox="0 0 922 310"><g fill="#2c2c2c"><path d="M148.79 117c-22.26 37.41-73.6 48.47-109 23.48-31.62-22.37-38.06-71.91-12.62-102.77 17.71-21.49 41.91-28.07 68.72-25.41 12.88 1.28 28.22.82 37.62 7.72 10.1 7.4 2.1 23.77 4.45 36 .77 4 1.69 8.19-.65 13.06-5.47-4-5.07-10.66-7.37-15.67-11.21-24.41-33.44-37.41-55.38-31.18-4.35 1.23-9 3.1-12.34 6-21.32 18.21-22.71 42.64-18.75 67.59 3.31 20.82 15.59 35.41 36.81 40.84 24 6.14 43.66-1.25 59.93-19.42 2.59-2.88 3.65-7.72 8.69-8 2.36 2.58 2.25 5.16-.11 7.76zM737.43 145.44c4.85-3.84 5.85-9 5.7-14.87-.26-10.66-.29-21.33 0-32 .29-11.22-5.92-16.81-16.09-16.34-9.84.46-17.91 4.57-17.06 17.17a238.73 238.73 0 010 27.8c-.49 9.69.9 17.77 12.09 21.79h-50.86c17.51-5.73 13.79-18 14-28.79.14-7.88-.4-15.79.14-23.64.7-10.36 0-19.45-12.86-23.17 10.65-1.05 21.3-2.13 31.95-3.12 1.34-.12 3.83 0 3.92.4 3.94 17.88 12.26 3.64 17.19 1.61 23.76-9.79 42.36 1.84 42.49 27.45 0 10.19.29 20.4-.1 30.59-.23 6 1.29 10.91 5.63 15-7.78 5.68-27.94 5.68-36.14.12zM409.69 98.79c-7.69-8-12.78-16.61-22.06-20.47-7.29-3-15.4-4.92-19.26 3.69-3.53 7.86 4.06 11.38 9.82 14.16 7.9 3.8 16.41 6.38 24.2 10.38 10.27 5.28 16.63 13.52 14.37 25.85-2.12 11.54-10.05 16.73-21.08 19.08a65.62 65.62 0 01-40.77-4.48c-11.2-5-6.38-16.83-6.89-26.69 7.41.9 8.43 6.81 11.53 10.37 8 9.21 17.42 15.18 30.06 14.69 5-.2 9.27-2.07 10.31-7.46.92-4.75-1.85-8-6-9.8-9.3-4.12-18.74-7.92-28-12.18-12.09-5.58-19.45-14.13-16.46-28.49 2.42-11.67 12-18.34 27.67-17.84 9.66.34 19.24 2.4 28.87 3.4 3.37.34 5.35 1.52 5.1 4.94-.42 6.26 2.77 12.66-1.41 20.85zM563.53 109.07c-7.3-10.42-9.93-18.87-16.4-24.94-6.89-6.47-14.44-8.37-22.93-5.43-8.26 2.86-12.15 9.74-13 18.13-1.4 14.48.92 28.19 13.28 37.42 12 9 25 8.11 37.66.35 2.46-1.52 5.19-3.14 7 .14 1.93 3.44-1.68 4.65-3.68 6.29-19.13 15.65-51 14.95-69.24-1.51-22-19.84-14.09-55.24 14.8-66.43 15.39-6 31.08-2.93 46.73-2.1 4 .21 5.75 2.29 5.73 6.2.02 9.12.05 18.24.05 31.88zM263.23 150.18c-1.38 0-3.26.65-4.05 0-2.85-2.41-1-4 1.56-4.58 10.31-2.32 10.66-10.16 10.6-18.39-.08-9.28-.26-18.57 0-27.84.36-11.22.61-22.11-14-26.46 8-1 16.05-1.33 23.84-3.07 9.28-2.07 15.22-1.06 13.13 11.25 7.92-4.71 14.34-9.35 21.42-12.49 6.86-3 15-4.82 20.32 2.53 4.86 6.65 6.05 13.74-4.2 17.53-4.32 1.6-8.5 3.56-13.68 5.75.44-6.55 1.08-13.88-7.45-12.91-7.77.88-16.09 3.74-16.58 13.59-.63 12.5-.21 25-.12 37.58.07 8.79 6 11.8 13.45 13.16-1.07 5.64-5.6 3.19-8.64 3.37-11.83.73-23.76-.94-35.6.98zM821 245.82l-24.34.05c-2.76 1.22-3.57 0-3.28-2.61 6.64-3.5 6.08-9.83 6.09-15.81.05-34.77-.06-69.54.09-104.3 0-8.65-.38-16.56-13.32-18.33 29.46-6.68 29.46-6.68 29.46 19.8 0 33.38.06 66.75 0 100.13 0 6.63 0 13 5.41 17.95.85.71 1.12 1.41.82 2.1s-.69 1.02-.93 1.02zM846.4 243.17c5.43-4.13 5.87-10 5.8-16.14-.14-12.43 0-24.86-.06-37.29 0-6.22 2.25-14-11.83-13.15 14.68-3.44 11.56-12.49 11.87-20.14.87-21 2.79-41.6 24.33-53.21 2.71-1.66 3-.1 2.9 2.13-8.12 6.73-10.78 15.81-11 25.88-.11 5.54 0 11.09 0 16.63 0 22.43 0 22.41 21.71 24.94 1.13.13 2.16 1.14 3.39 1.83-2.25 6-7.36 4-10.62 3.5-13.11-2.21-15.66 3.9-14.68 15.4.94 11 .31 22.16.16 33.25-.09 6.94 1.5 12.83 8.25 16.21-10.04 6.37-20.11 6.06-30.22.16zM433.5 145.42c4.11-1.78 7.41-4.81 7.49-9.22q.5-25 .06-50c-.14-8.37-8.21-8.69-13.77-11.6.7-.84 1.12-1.83 1.63-1.87 12.3-1.07 24.61-2 36.92-3 .14 12 .32 23.91.4 35.87.07 9.27.15 18.54 0 27.8-.12 6.41 2.32 10.69 8.73 12.34-10.26 8.31-22.16 1.57-33.16 3.43-2.8.41-7.71 2.18-8.3-3.75zM467.72 28.06c-.92 10-6.71 15.48-16.29 15.15s-15.49-6.38-15.13-16.21 6.63-15.44 16.21-15.14 14.75 6.53 15.21 16.2z"/><path d="M879.41 105.37l-2.9-2.13c19.82-7.37 34.25-1.07 33.73 14.87-.12 3.65 2.13 9.39-4.56 9.57-5.36.15-6.32-4.13-6.67-8.7-.96-12.37-7.15-17.57-19.6-13.61zM654.14 179.47l-4-4.11c5.37-2.37 10.55-5.74 16.17-6.88 7.46-1.52 12.15 2.24 12.43 10.42.14 4.14-2.65 5.23-5.75 6.44s-4.79 1-5.58-2.87c-2.1-10.39-8.1-5.21-13.27-3zM433.5 145.42c13.79 3.93 27.6 3.56 41.43.26 1.57.59 3.83.75 4.58 1.89 1.4 2.12-.5 3.23-2.43 3.22q-22.59-.07-45.18-.38c-1.87 0-3.68-.8-3-3.22s2.87-1.69 4.6-1.77zM737.43 145.44c12.05 4 24.09 4.14 36.11-.12 2.72.12 5.52 0 8.35 4.63-16.43 0-31.79.08-47.15-.08-2.61 0-2.45-2.36-1.2-3.73.71-.77 2.56-.5 3.89-.7zM263.23 150.18c9.52-5.16 19.79-1.18 29.63-2.44 4.88-.63 10.13 1.53 14.65-1.92 1.63.5 4.46.68 4.7 1.57 1.37 4.9-2.73 3.33-4.87 3.32-14.71-.07-29.41-.33-44.11-.53zM846.4 243.17c10.09 3.08 20.16 3.31 30.22-.16 2.81-.19 5.44.07 7.65 4.05h-47.35zM793.33 243.26l3.28 2.61c-3.53 1.71-7.12 2.84-11.4 1.5 1.98-3.75 5.41-3.18 8.12-4.11zM821 245.82l.06-3.12 10.54 3.49c-4.41 3.13-7.55 1.6-10.6-.37z"/><path d="M666.87 251.73c-3.64-12.13-14.39-14.8-25.7-14.85-11.61 0-23.21.41-34.82.46-4.36 0-8.67-1-9.89-6-1.35-5.48 2.83-8.33 6.39-11.3 4.25-3.53 8 .11 11.71 1.11 13.51 3.61 26.06 2.53 36.08-7.91 9.67-10.06 8-21.95 3.5-33.82.69-3.33-.39-4.94-4-4.11-2.35-1.48-4.52-3.45-7.07-4.36-13.65-4.92-27.48-6.93-39.46 3.44-11.42 9.89-12.13 22.44-5.41 35.31 2.77 5.31-1.32 6.26-3.84 8.48-7.53 6.64-12.63 14.74-7.55 24.42 3.18 6.07 1.6 9.56-1.21 14.71-7.25 13.28-3 27.64 9.46 34.83 17.56 10.14 48.13 7.21 63.15-6.07 10.73-9.43 12.45-21.69 8.66-34.34zm-41.87-78.5c9.27-.29 16.85 9.26 17.06 21.49.2 11.89-7.22 22.13-16.23 22.4-9.28.29-16.61-9.15-16.79-21.61s6.57-21.99 15.96-22.28zm29.18 105.48c-12.21 8.68-41.56 8.52-53.2-.4-6.38-4.89-9.14-10.81-7.43-19.37 2-9.87 9.12-7.18 15.09-7.67 5.08-.42 10.19-.48 14.07-.65 10 .56 18.85-.82 27.52 1.81 5.78 1.75 10.14 4.85 11.31 11 1.29 6.71-2.11 11.57-7.37 15.28zM653.06 114.1c.3-6.92.38-13.86.68-20.78a18.35 18.35 0 00-4.51-12.78c-11.6-14.12-50.73-15.48-62.78-2-2.66 3-7.18 7.62-4.14 10.6 5.29 5.16 13.69 4.25 20.69 5.79 4.65 1 5.14-2.34 5.3-5.9.33-7.76 4.09-12.84 12.25-11.12 11.21 2.35 7.27 12.06 8.23 19.35 1.06 8-3.36 8.88-9.9 8.86-11.61-.05-23 1.39-33.41 7.49-8 4.73-12 11.65-11 20.7 1 9.35 7.08 14.41 16 16.95 12.09 3.45 22.68-.93 33.47-5.21 3.45-1.37 5.87-5 11.15-2 19.57 11.3 23.64 10.13 40.65-9.74-23.04 3.69-23.74 3.02-22.68-20.21zm-36.91 26.19c-9.28.15-15.53-3.91-15-13.64.62-11.17 9.2-13.53 18.57-14.12 10-.64 9.43 6.18 9 13.27 1.75 9.52-2.72 14.34-12.57 14.49zM235.07 80.76c-24.35-20.91-74.6-13.18-81.42 22.35-.51 2.64-1.26 5.55-4.75 6.09 0 2.58-.07 5.17-.11 7.75 2.6-.66 4.07.12 5.25 2.77 12.18 27.42 33.86 38.28 62.39 30.78 16.36-4.3 28.15-14.35 32-31.25 3.5-15.25-1.49-28.25-13.36-38.49zm-30.85 63.91c-11.07.72-19.31-9.66-22.63-27.17a52.06 52.06 0 011.63-27.33c5.17-14.86 20.49-17.37 30.36-5 6.71 8.38 7.88 18.52 7.89 28.85.09 18.44-6.36 29.98-17.25 30.65zM732.4 167.37c-26.16.06-44.18 17-44.11 41.38.06 23.68 18 40.58 43.31 40.71 27.21.14 44.8-15.41 45.16-39.91.37-25.55-17.15-42.24-44.36-42.18zm22.67 60.2c-6.36 18.12-25.36 21.5-38.21 7.05-11.15-12.55-12.79-38.09-3.33-52.1 8.15-12.08 23.94-12.55 34.3-.74 7.35 8.38 10.14 18.5 9.86 33.47-.32 1.58-.82 7.18-2.62 12.32z"/></g></svg>