<svg xmlns="http://www.w3.org/2000/svg" viewBox="0 0 964 310"><defs/><g fill="#2c2c2c"><path d="M41.23 289.04h-17.12v-44.78l51.22-.53 9.82-13.06-74.25.77v70.56h20.58zM123.55 265.76l31.74-35.82-53.6.56-53.8 71.5h15.59l.42.3.22-.3h92.67zm-16-22.36l18.52-.19-20.12 22.7 21.19 23.09h-53.43zM224.75 247.08a15.27 15.27 0 00-6.94-5.18 23.32 23.32 0 00-8.36-1.63 23.59 23.59 0 00-9.51 1.86 22.5 22.5 0 00-7.37 5.13 22.79 22.79 0 00-4.75 7.65 26.64 26.64 0 00-1.67 9.52 28.9 28.9 0 001.62 9.89 22.17 22.17 0 004.61 7.69 20.66 20.66 0 007.18 5 23.74 23.74 0 009.41 1.78 21.12 21.12 0 009.6-2.1 18.68 18.68 0 006.75-5.55l9.6 6.62a30.58 30.58 0 01-10.92 8.53 35.3 35.3 0 01-15.12 3 39.68 39.68 0 01-14.49-2.57 33.44 33.44 0 01-11.39-7.15 32.59 32.59 0 01-7.41-11 36.48 36.48 0 01-2.66-14.13 35.25 35.25 0 012.8-14.32 32 32 0 017.7-10.87 34.23 34.23 0 0111.55-6.9 41.88 41.88 0 0114.46-2.43 39.27 39.27 0 016.75.61 34.71 34.71 0 016.75 1.86 32.63 32.63 0 016.08 3.13 19.41 19.41 0 014.85 4.48zM299.86 273.38a26.78 26.78 0 01-2.09 10.78 24.25 24.25 0 01-5.71 8.16 25.16 25.16 0 01-8.55 5.18 32.63 32.63 0 01-21.49 0 25.58 25.58 0 01-8.6-5.18 23.3 23.3 0 01-5.71-8.16 27.3 27.3 0 01-2-10.78v-41.79h12v41.33a21.9 21.9 0 00.76 5.73 13.74 13.74 0 002.52 5.09 12.94 12.94 0 004.65 3.64 19.11 19.11 0 0014.36 0 13 13 0 004.66-3.64 14 14 0 002.52-5.09 21.9 21.9 0 00.76-5.73v-41.33h12zM331.61 241.85h-20.61v-10.26h53.24v10.26h-20.65v55.79h-12zM389.51 241.85h-20.63v-10.26h53.24v10.26h-20.63v55.79h-12zM433.82 231.59h44.58v10.26h-32.6v16.79h30.89v9.89h-30.89v18.66h34.31v10.45h-46.29zM495.71 231.59h23.38a43.21 43.21 0 019.23 1 23.88 23.88 0 017.93 3.22 16.94 16.94 0 015.57 5.87 17.59 17.59 0 012.09 8.87q0 7.18-4.14 11.71a21 21 0 01-11.26 6.11l18 29.29h-14.51l-15.6-28h-8.74v28h-12zm21.77 28.41a35.41 35.41 0 005.13-.37 14.89 14.89 0 004.61-1.4 8.93 8.93 0 003.38-2.94 8.34 8.34 0 001.33-4.9 7.41 7.41 0 00-1.24-4.43 9.22 9.22 0 00-3.13-2.75 13.44 13.44 0 00-4.33-1.4 30.76 30.76 0 00-4.71-.37h-10.83v18.56zM633.85 281.87l15.68 15.77h-15.21l-7.41-7.56a28 28 0 01-8.09 6.35q-4.74 2.57-12.07 2.57a29.8 29.8 0 01-8.55-1.22 21.07 21.07 0 01-7.18-3.64 17.51 17.51 0 01-6.8-14.36 16.71 16.71 0 011.24-6.58 19.33 19.33 0 013.29-5.27 22.17 22.17 0 014.68-4 36.85 36.85 0 015.49-2.89 30.89 30.89 0 01-5.32-7 16.2 16.2 0 01-2-7.89 15 15 0 011.67-7.27 15.3 15.3 0 014.37-5.09 18.7 18.7 0 016.09-2.94 25.73 25.73 0 016.89-.93 25.06 25.06 0 017 1 17.4 17.4 0 015.94 3 14.8 14.8 0 015.7 12.08 15.2 15.2 0 01-1.09 5.83 18.11 18.11 0 01-3 4.85 20.64 20.64 0 01-4.37 3.87 38.75 38.75 0 01-5.37 3l11 11.28 7.79-12h13zm-28.52-13.71a22.22 22.22 0 00-3.57 1.59 12.83 12.83 0 00-3 2.24 9.76 9.76 0 00-2 3.12 10.63 10.63 0 00-.76 4.15 9.49 9.49 0 001 4.39 9.85 9.85 0 002.61 3.26 12.17 12.17 0 003.61 2 12 12 0 003.9.7 13.59 13.59 0 007.13-1.77 19.66 19.66 0 005.42-5zm5.56-29.2a8 8 0 00-5.58 2 6.85 6.85 0 00-2.27 5.32 10.4 10.4 0 001.56 5.41 22.31 22.31 0 004.4 5.13 33.24 33.24 0 003.73-1.86 15.53 15.53 0 003.07-2.34 10.35 10.35 0 002.08-2.89 8 8 0 00.75-3.45 7.11 7.11 0 00-2.17-5.18 7.52 7.52 0 00-5.57-2.1zM689.09 231.59h26.23a31.67 31.67 0 017.51.89 19.28 19.28 0 016.61 2.89 15.61 15.61 0 014.71 5.17 15.31 15.31 0 011.85 7.66 13.35 13.35 0 01-3.24 9.23 18 18 0 01-8.46 5.23v.18a17.81 17.81 0 0110.46 4.85q4.08 4 4.09 10.73a17.55 17.55 0 01-2.19 9.1 17.25 17.25 0 01-5.75 5.92 25 25 0 01-8.18 3.22 45.07 45.07 0 01-9.36 1h-24.28zm12 26.87h10.65q6 0 9.13-2.33a7.79 7.79 0 003.13-6.63c0-3-1.08-5.1-3.24-6.34s-5.51-1.87-10.07-1.87h-9.61zm0 29.29h10.75a40.25 40.25 0 004.94-.33 16.12 16.12 0 004.9-1.35 9.52 9.52 0 003.7-3 8.45 8.45 0 001.48-5.23c0-3.48-1.21-5.91-3.61-7.27s-6.06-2.06-10.94-2.06h-11.25zM808.11 273.38a26.61 26.61 0 01-2.11 10.78 24.08 24.08 0 01-5.7 8.16 25.11 25.11 0 01-8.56 5.18 32.6 32.6 0 01-21.48 0 25.62 25.62 0 01-8.61-5.18 23.28 23.28 0 01-5.7-8.16 27.12 27.12 0 01-2.05-10.78v-41.79h12v41.33a21.9 21.9 0 00.76 5.73 14 14 0 002.52 5.09 13.06 13.06 0 004.66 3.64 19.11 19.11 0 0014.36 0 12.94 12.94 0 004.65-3.64 13.74 13.74 0 002.52-5.09 21.9 21.9 0 00.76-5.73v-41.33h12zM874.85 247.08a15.21 15.21 0 00-6.94-5.18 23.32 23.32 0 00-8.36-1.63 23.59 23.59 0 00-9.51 1.86 22.5 22.5 0 00-7.37 5.13 22.79 22.79 0 00-4.75 7.65 26.64 26.64 0 00-1.67 9.52 28.9 28.9 0 001.62 9.89 22.32 22.32 0 004.61 7.69 20.66 20.66 0 007.18 5 23.78 23.78 0 009.41 1.78 21.2 21.2 0 009.61-2.1 18.73 18.73 0 006.74-5.55l9.61 6.62a30.7 30.7 0 01-10.94 8.54 35.28 35.28 0 01-15.11 3 39.69 39.69 0 01-14.5-2.57 33.4 33.4 0 01-11.36-7.18 32.76 32.76 0 01-7.42-11 36.48 36.48 0 01-2.7-14.12 35.09 35.09 0 012.81-14.32 31.84 31.84 0 017.69-10.87 34.18 34.18 0 0111.56-6.9 41.78 41.78 0 0114.45-2.43 39.27 39.27 0 016.75.61 34.71 34.71 0 016.75 1.86 32.63 32.63 0 016.08 3.13 19.41 19.41 0 014.91 4.49zM896.34 231.59h12v28.55h.29l28.14-28.55h16.16l-31.49 30.51 33.56 35.54h-16.83l-29.56-33.12h-.29v33.12h-12zM94.5 7.4h1.5l85.62 175.6h-39.4l-14.22-30.55h-65.81l-13.7 30.55h-39.4zm22.27 119.11c-8.08-18-15.91-36.26-21.29-51.39-5.14 12-14.44 35.06-21.78 51.39zM340 185.59l-96.67-91-11.5-9.85v98.26h-37v-175.6h1.47l96.43 91 11.27 9.86v-98.26h37.2v175.59zM515 185.59l-96.67-91-11.5-9.85v98.26h-37v-175.6h1.47l96.43 91 11.27 9.86v-98.26h37.2v175.59zM544.82 183v-173h37.69v173zM658.62 91.69l68.53-81.69h44.54l-62.41 72.33 63.39 100.67h-42.1l-46.74-76.9-25.21 28.1v48.8h-37.69v-173h37.69zM866.16 7.4h1.47l85.65 175.6h-39.4l-14.19-30.5h-65.83l-13.71 30.5h-39.4zm22.27 119.11c-8.08-18-15.91-36.26-21.29-51.39-5.14 12-14.44 35.06-21.78 51.39z"/></g></svg>