<svg xmlns="http://www.w3.org/2000/svg" viewBox="0 0 922 224"><g fill="#2c2c2c"><path d="M405.28 151l56.72-19.48c-2.06-2.56-3.3-3.92-4.34-5.42-6.72-9.68-14-19.06-19.83-29.24-2.87-5-4.23-11.5-4.29-17.35-.15-12.92 8.79-21.81 20.77-22.11 11.3-.29 17.35 6.27 18.73 20.28l1.87 1.91c.66-1.55.88-3.68 2-4.55 5.78-4.33 11.42-9.12 17.85-12.24 7.26-3.53 15.1-2.83 21.45 2.84 6.58 5.88 8.79 13.94 6 21.88-2.65 7.5-6.5 15.19-11.79 21-7.05 7.74-16 13.75-24.15 20.46-1.31 1.08-2.81 1.93-4.27 2.92 9.82 9.37 29.08 8.82 37.53-1 1-1.21 1.19-3.37 1.34-5.12.45-5.48 0-11.15 1.22-16.43 1.38-5.87 5.78-9.78 11.89-11.2 4.76-1.1 9.09-.25 12.14 3.85 2.89 3.9 2.12 8 .55 12.35-1.5 4.11-3.68 8.66-3.16 12.71 1.86 14.35 20.58 19.64 32.94 9.69 9.65-7.76 11.68-22.23 3.59-31.6-4.94-5.73-11.07-10.47-16.9-15.38-14.12-11.89-18.82-25.16-14.08-40.5 7.15-23.15 38.84-31.79 56.81-15.5 8.49 7.7 11.14 19.89 6.58 29.45-1.54 3.22-3.2 4.57-6.8 2.58-3.92-2.16-8.13-3.81-12.11-5.64 0-.61-.12-1 0-1.27 3.74-7.42 3.33-13.74-1.23-18.27s-12.71-5.3-19.31-1.55c-6.32 3.59-10 10.38-7.5 17.13a42.48 42.48 0 009 14.06c3.5 3.7 8.23 6.39 12.74 8.94 14.48 8.19 22.68 19.89 20.73 37-2.11 18.8-12.97 30.8-30.74 36.14-15.37 4.63-30.21 2.3-44-6.13-1.29-.79-3.76-1.26-4.81-.56-18.42 12.21-36.06 8.64-52.85-3-4.42-3.06-7.32-2.87-11.92-1-19.8 8-39.77 15.44-59.77 22.86-3.08 1.15-4.82 2.49-5.59 5.82-2.05 8.78-4.24 17.55-6.87 26.16-4.34 14.19-16.6 22.72-30.14 21.45-14.89-1.4-25-16.24-22.57-33.06 1.67-11.64 8.11-19.37 19.15-23.09 6.73-2.26 13.64-4 20.49-5.92 7.43-2.07 8.13-2.94 8.72-11.44-17.1 9.46-26.23 3.12-32-8.84-18.4 15.6-37.41 22.84-58.15 3.71-23.85 17.08-40.17 12.87-47 .21-6.84 3.54-13.34 7.94-20.52 10.34-7.54 2.53-12.87-1.31-18.72-11.23-1.41 1.23-2.76 2.41-4.12 3.58-5.25 4.51-11.05 7.81-18.16 8.19-13.92.73-23.06-7-24-20.91-2.6-38.31 29.6-54.67 56.29-45.78a6.71 6.71 0 001 .16c4.63-9.87 13.2-3 20.72-5.82-2.85 9.91-5.34 18.51-7.8 27.13-1.89 6.67-4.1 13.28-5.42 20.07-.51 2.61.35 7.46 1.86 8 2.46 1 7.19.36 8.8-1.48 4.58-5.25 9-11 11.76-17.38 3.5-8.05 5-17 8-25.26 1.06-2.91 3.69-6.27 6.42-7.35 7.08-2.78 13.38 3.49 11.38 11-2.23 8.37-4.86 16.64-7.3 25a38.09 38.09 0 00-1.4 5.54c-.87 6.56 3.74 11.24 10.28 10.31a24 24 0 006.4-2c8.15-3.65 7.58-3.7 7.72-12.66.4-26.94 6.27-52.69 19-76.56 4.74-8.91 12-15.17 22.72-16.38 18.92-2.14 31.53 10.11 30.09 29.17-1 13.19-6.62 24.6-14.65 34.48-9.39 11.55-20 22.13-30.18 33-3.57 3.82-3.7 5.48.68 8.41 6.12 4.1 12.74 3.93 18.7.17 8.47-5.35 15.61-12 18.17-22.44 1.66-6.73 3.77-13.35 5.86-20 2-6.18 6.28-8.7 11.87-7.22 5.14 1.36 7.36 5.72 5.74 12-2.08 8-4.51 16-6.6 24.07a19.2 19.2 0 00-.83 7.7c.44 2.68 1.44 6.57 3.31 7.4 2.56 1.12 7.22 1 9.1-.67a31.27 31.27 0 008.47-12c3.8-10.41 6.74-21.14 9.61-31.86 1.12-4.15 3-5.63 7.25-5.21 3.74.38 7.55.08 12.18.08-6.54 22.59-12.91 44.59-19.29 66.6zm98.86-62c-.06-8.49-3.66-12.61-9.69-11.71-4.18.64-8.36 2.9-11.95 5.32-2.93 2-4.8 5.43-7.5 7.84a6.43 6.43 0 01-4.93 1.55c-1.13-.28-2.17-2.46-2.54-4-.63-2.5.07-5.63-1.18-7.61-1.79-2.81-4.52-6-7.44-6.81-2.4-.62-7.37 1.44-8.18 3.5-1.43 3.64-2.13 9-.39 12.2 6.08 11 13.25 21.42 20.29 31.87.65 1 3.81 1.38 5 .68 9.26-5.63 17.51-12.55 23.38-21.76 2.52-3.92 3.99-8.57 5.13-11.01zm-190.14 19.91c14.95-11 29.85-36.54 33.85-55.51a28.88 28.88 0 00.77-9.23c-.66-5.53-5.18-7.53-9.28-3.78-3.87 3.55-7.8 7.8-9.74 12.54a324.24 324.24 0 00-11.22 33.36c-2.15 7.36-3.01 15.07-4.38 22.62zm-94-14.04c-3.61-.87-5.91-1.7-8.26-1.93-16.77-1.65-31.12 15.74-28 33.78 1 5.63 4.64 8.43 10.33 7.6 7.18-1 12.9-4.8 15.71-11.4 3.83-8.85 6.68-18.09 10.22-28.05zm160 77.13l-1.27-.87c-5.18 2.33-10.51 4.38-15.51 7-6.41 3.42-8.38 8-7.26 15.12.68 4.3 2.68 7.61 7.26 8.34s7.46-2 8.85-5.72c2.93-7.87 5.31-15.93 7.93-23.87zM595.1 190.07l32.35-111.32h19.89c-.39 2.36-.75 4.47-1.14 6.78 18.53-9.13 36.74-3.73 39.68 16.6 7.43-4.91 14.72-9.49 21.74-14.44 5.48-3.87 11.2-6.15 18-5.2a11.38 11.38 0 004.09-.37c16.16-3.67 28.32 5.06 30 21.61.28 2.88.35 5.77.58 9.77 11.08-9.42 13.39-21.94 16.7-34.34h16.81a27.13 27.13 0 006.16 17.65c4.83 6.08 4.1 13 3 19.93-.54 3.42-1.67 6.81-1.72 10.23 0 2.13.93 5.54 2.37 6.14 1.93.8 5.55.26 7-1.17 3.45-3.29 7.06-7.07 8.8-11.38 3.61-8.91 6.05-18.3 9.21-28.27h-13.5c1.11-4.3 1.68-8.05 3.16-11.4.55-1.23 3.25-2 5-2.1 9.11-.36 9.1-.26 11.61-8.87 1-3.33 1.89-6.68 3.05-10 1.75-4.95 6.32-7.5 11-6.34 5.09 1.25 7.6 5 6.51 10.71-.87 4.56-2.38 9-3.79 14.16h13.79c-1.17 4.53-1.82 8.41-3.29 11.94-.43 1-3.16 1.57-4.85 1.62-9.86.27-10.05.15-12.5 9.66a169.65 169.65 0 00-3.93 19.81c-.61 4.56.14 9.46 5 11.65 5.2 2.35 9-1.11 12.26-4.57a116.15 116.15 0 009-10.8c4.21-5.71 8.14-11.64 12.08-17.32-5.1-7.94-5.55-12.25-1.91-16.38a10.9 10.9 0 0112.84-2.6c5.06 2.35 6.34 6 5.13 15.14 12.74 6.54 26 13.39 23.4 31.27-1.72 12-9.21 19.62-20.77 22.93-12 3.44-22.21-.61-32.24-12.57-6.58 6.13-13.44 11.93-23.2 12-9.59.07-17.23-3.33-21.28-10.93-2.58 2-5.12 3.75-7.49 5.74a22 22 0 01-18 5c-9.3-1.34-15.09-9.13-13.46-19.52 1.06-6.75 3.86-13.23 5.89-19.83 1.58-5.18 1.33-7.06-1.81-10.89-1.44 2.75-2.7 5.33-4.11 7.83-5.85 10.31-12.57 19.61-24.85 23.12-1.51.44-2.71 2.5-3.73 4-8.6 12.78-21.52 18.1-36.06 14.76-11.59-2.67-19.47-11.4-20.45-23.33-.46-5.65-.08-11.37-.08-17.51-3.5 1.73-7.28 3.35-10.77 5.45-1 .63-1.34 2.57-1.86 4-2.4 6.27-4.16 12.88-7.27 18.77-3.43 6.48-9.37 10.59-16.55 12.64-8 2.29-15.3.15-18.5-5.46-3.56-6.24-1.81-15.72 4.54-20.67a84.73 84.73 0 0114.59-9c3.67-1.83 5-4.24 4.92-8.13-.13-6.65-2.77-11.43-7.58-13s-11.12.5-14.43 5.79a51.25 51.25 0 00-5.52 12.26q-11.1 36.85-21.72 73.87c-1 3.54-2.34 5.22-6.3 4.91-4.81-.31-9.67-.03-15.49-.03zm293.19-84.07a22.32 22.32 0 00-1.67 1.93c-2.89 4.54-5.57 9.22-8.69 13.59-2.15 3-1.54 5.42.43 8 4.08 5.33 12.25 6.16 17.68 1.78 5.77-4.63 6.83-12.82 1.87-17.92-2.71-2.8-6.22-4.82-9.62-7.38zm-170.88-2.6c-3.63 8.42-5.28 16.52-2.4 24.95 1.51 4.45 5 7 9.8 7.35 4.94.38 9.14-.91 11.87-5.55-10.35-5.46-10.35-5.46-19.27-26.75zm24.59 13.44c2.2-6.65 3-13.08-.31-18.89-1.32-2.33-5-4.59-7.6-4.61-3.76 0-4.83 3.81-4.9 7.33-.13 7.04 4.81 13.42 12.81 16.17zm-80.2 9.91l-1.44-1.32a72.61 72.61 0 00-7.25 6c-.72.76-.15 2.74-.17 4.16 1.5-.33 3.62-.17 4.37-1.1 1.83-2.31 3.03-5.13 4.49-7.74z"/><path d="M58.77 76.34c3.43 3.86 6.63 7.07 9.28 10.66.78 1.08.59 3.58-.1 4.93-6.57 12.77-20.74 19.64-35.95 17.67-13.52-1.74-25.3-12.68-28.31-26.39-2.94-13.4 1.05-25.21 9.39-35.47 14.22-17.55 33.5-25.86 55.42-28.74a104.59 104.59 0 0136.73 1.91c3 .66 5 0 7.42-2.07 5.42-4.8 11.33-9.06 17.59-14 4.68 6.3 8.85 11.93 13 17.57l-12 8.73a67.44 67.44 0 0125.84 32.68c10.68 28.09 1.93 75.77-39.09 90-17.06 5.93-33.88 4-50.41-2.13-3.65-1.36-6.1-1.05-9.35 1.32-10.48 7.65-22.23 11.23-35.29 8.8a22 22 0 01-6.79-2.53c-5.28-3-8.86-7.24-8.4-13.83s4-11 9.93-13.45c9.37-3.87 19-3.55 28.61-1.08 4 1 7.94 2.38 13 3.9 4-8.72 8.59-17.28 12-26.27 7.27-18.93 13.84-38.13 21-57.13 2.29-6.11 5.4-11.92 8.35-18.35-11.9-3.87-23.63-3.53-35.41-.66a69.44 69.44 0 00-31 16.38c-7.3 6.7-12 14.78-12 25 0 8.88 5.63 16.3 13.65 17.94a18.39 18.39 0 0020.98-10.73c.49-1.06.91-2.2 1.91-4.66zm13.3 62.53c22.27 7.09 41.39.84 52.55-17.33 10.9-17.75 14.3-37 9.31-57.45-2.05-8.37-5.84-15.88-13.13-21.79a36.6 36.6 0 00-3.65 4.5c-4.81 8.41-10.12 16.61-14.08 25.42-10 22.21-16.42 46.03-31 66.65zm-22.86 6.31c-6.42-3.64-12.38-6.1-19.2-5.26-3.38.41-6.15 2.13-6.21 5.8s2.71 5.37 6.14 5.75c7.06.78 13.27-1.1 19.27-6.29zM285.13 65.12c-.4 5.06-4.77 8.6-10.07 8.15a8.74 8.74 0 01-8.06-9.58 9 9 0 0110-8.23 9.08 9.08 0 018.13 9.66z"/></g></svg>