<svg xmlns="http://www.w3.org/2000/svg" viewBox="0 0 889 224"><g fill="#2c2c2c"><path d="M71.25 171.79c26.11 21.63 68.68 17.27 93.43-9.28 3.62-3.89 7.13-7.72 12.75-8.57 8-1.21 14.72 1 19.13 7.76 4.78 7.39 4 14.83-1.59 21.51-18.2 21.61-41.68 34.65-70.09 37.41-42.81 4.15-77.81-11-101.6-46-23.58-34.8-23.83-71.54-3.75-108.36.28-.5.55-1 .86-1.5 6.47-10.29 16.79-13.6 26.18-8.42s12 15.56 5.8 26.13c-8 13.67-11.45 28.15-9.34 43.76.79 5.88.55 13.67 5.61 16.25 3.44 1.75 8.28-5 12.33-8.17 28.8-22.25 57.4-44.75 86.31-66.86 5.52-4.22 5-6-.83-9-18.11-9.27-36.81-11.37-56.28-5.18-5.87 1.86-11.49 2.56-17-.35-6.56-3.43-9.82-9-9.64-16.17.21-8 4.53-13.38 12-16.49 38.47-16.06 94.58-1.12 119.54 31.88 7.17 9.46 5.67 18.9-4.56 26.87q-55.47 43.2-111 86.29c-2.76 2.13-5.51 4.29-8.26 6.49zM779.68 14.1a93.71 93.71 0 0129.32 5.22c12.13 4.2 17.68 13.51 14.08 23.73-3.46 9.8-13.39 13.83-25.4 10.33-38.96-11.38-77.15 7.28-89.16 43.62-9.78 29.57 2 61 29.19 77.9 26.43 16.45 61.39 13.64 84.21-6.76 23.63-21.13 29.88-54.44 15.33-81.71-1.89-3.54-4.46-6.73-5.21-10.82-1.63-9 2.65-16.88 11.07-20.21s17.46-.57 22.85 7.77a97.54 97.54 0 0115.22 66.63c-6.28 50.48-49 89.36-100 91.48-53.71 2.21-99.18-31.68-110.58-82.41-14.35-64.1 36.4-124.65 109.08-124.77zM341.71 14.14c23.2.29 49.74 11.93 71.09 34.73 9.43 10.06 9.7 20.43 1.06 28s-18.84 6.06-28.4-4c-21.56-22.79-53.09-29.38-81.27-17-27.06 11.9-43.62 39-41 67.18a67.82 67.82 0 0053.81 60.65c27.69 5.94 51.08-2.3 69.74-23 5.68-6.31 12.49-8.62 20.52-6.29 7.4 2.13 11.71 7.49 12.74 15 .85 6.14-1.87 11.12-6 15.55-29 31.14-64.86 43.19-106.72 33.15-42.22-10.11-69.28-37.22-78.62-78.57-14.76-65.29 36.34-125.74 113.05-125.4zM551.78 14.13c33.84.28 60.36 11.91 81.76 34.66 9.45 10.05 9.9 20.51 1.44 28s-19 6.25-28.43-3.75c-20.9-22.04-51.5-29.14-78.84-18.24-27.59 11-45.29 36.8-43.6 65.56 1.7 29 16.75 50.1 44.52 60.58s53.12 4.35 74.84-15.54c1.92-1.76 3.51-3.86 5.36-5.7 7.39-7.34 17.82-8.19 25.43-2.12 8 6.4 9.38 16.91 2.48 25.28a102.82 102.82 0 01-61.17 36.44c-59.07 11.55-115.93-25.38-126.67-81.93-11-57.77 27.6-111.68 87.41-121.95 5.76-.99 11.69-.99 15.47-1.29zM859.62 37a17.32 17.32 0 1117.31-17.32 17.34 17.34 0 01-17.31 17.32zm0-32.5a15.19 15.19 0 1015.18 15.19 15.2 15.2 0 00-15.18-15.18z"/><path d="m855.25 21.87v7.72h-1.32v-19.79h5.55a5.49 5.49 0 0 1 2.35.51 6.51 6.51 0 0 1 1.91 1.34 6 6 0 0 1 1.26 1.9 5.81 5.81 0 0 1 .45 2.26 6 6 0 0 1 -1 3.4 5.54 5.54 0 0 1 -2.85 2.21l1.53 2 1.62 2.1 1.61 2.09c.53.69 1 1.34 1.51 2h-1.68l-5.94-7.72zm0-10.75v9.43h4.23a4.44 4.44 0 0 0 1.83-.38 4.73 4.73 0 0 0 1.47-1 4.78 4.78 0 0 0 1-1.5 4.6 4.6 0 0 0 .36-1.81 4.65 4.65 0 0 0 -.36-1.82 4.78 4.78 0 0 0 -1-1.5 4.73 4.73 0 0 0 -1.47-1 4.44 4.44 0 0 0 -1.83-.38z"/></g></svg>