<svg xmlns="http://www.w3.org/2000/svg" viewBox="0 0 964 225"><g fill="#2c2c2c"><path d="m380.82 206 50.76-63.12c-7.89 1.47-15.1 3.76-22.38 4-28.68 1-51.13-17.58-58.48-47.7-12.3-50.47 21.95-91.6 76-91.29 34.71.2 58.95 15.19 70.34 43.33 6.94 17.14 6.14 34.42 1.29 51.8-4.91 17.61-13.58 33.39-24.15 48.16q-18.3 25.56-37 50.85c-1.28 1.73-3.62 3.75-5.51 3.78-16.4.33-32.84.19-50.87.19zm75.77-127.22c.19-17-13.27-31.55-29.55-31.88-16-.33-29.37 13.6-29.67 30.78-.31 17.58 12.62 32 28.9 32.14s30.14-13.98 30.32-31.04z"/><path d="M322.57 102.36c31.4 12.64 37.69 63.36 13 89.31-15.18 16-34.46 21.94-55.61 22-37.61.06-65.37-22.68-73.18-59-.65-3-.72-6.13-1.15-10 2.67-.18 4.8-.44 6.94-.44 11.38-.05 22.76.1 34.14-.09 4.52-.07 6.95.45 7.79 6.11a24.78 24.78 0 0025.5 21.04c12.57-.61 22.35-9.29 23.88-21.21 1.75-13.62-5.5-25.57-18.19-28.9-4.35-1.14-9.11-.69-14.1-1v-31.4c2.51-.15 4.9-.15 7.25-.47 8-1 13.82-5.09 16.4-12.83 2.65-7.91 2-15.63-4.09-21.81-5.48-5.6-12.42-6.93-19.75-4.16-7.08 2.67-11.15 8.16-12 15.58-.49 4.3-2.28 5.52-6.45 5.44-12.24-.24-24.48-.09-38.36-.09 1.71-7.16 2.73-13.65 4.8-19.79 13.45-39.85 65.54-56.08 100.08-31.94 24.02 16.8 29.66 62.81 3.1 83.65zM730.46 207.53c-31.19.06-52.76-20.67-52.79-50.74 0-30.61 21.57-52.24 52.24-52.28s53 21.7 53 51.73-21.64 51.23-52.45 51.29zm-.46-31.76c10.61.09 18-7.65 18-18.91 0-11.06-7.54-19.35-17.75-19.42s-17.76 7.84-17.92 19.15 7.03 19.1 17.67 19.18zM593.12 130.3c-9.52 3.7-18.58 7.43-27.82 10.64-1.72.59-4.66-.31-6.19-1.56-7.7-6.29-17.17-5.91-23.88 1.36-7.66 8.26-8.23 23.37-1.34 32.26 7.09 9 19.87 8.73 26.57-2.05-4.17 0-7.6.38-10.88-.17-1.57-.26-4-2.21-4.07-3.52-.43-6.39-.19-12.82-.19-19.62h52c6.9 23.43-8.2 49.08-33.75 57.27-27.9 8.95-57.41-4.16-66.35-29.48-9.82-27.8 2.87-57.7 28.54-67.26s58.85.93 67.36 22.13zM889.63 205.56v-99.32h63.3v27.18h-28.46v9.2h25.87v25.88h-25.71v9.88h29.37v27.18zM779.87 106.06h35.8c5.08 18.45 10.14 36.87 15.34 55.78l15.36-55.69h35.51a42.2 42.2 0 01-1.14 4.75c-11.06 30.11-22.22 60.17-33.16 90.32-1.37 3.78-3.28 5.08-7.22 4.88-7.78-.4-17.45 2.42-22.84-1.24s-6.46-13.52-9.16-20.76q-13.27-35.7-26.36-71.46c-.74-2.05-1.34-4.15-2.13-6.58zM12.44 106.23h62.83v28.44h-28v10.11h24.26v26.11h-24.53v34.61h-34.56z"/><path d="M191.17 205.75h-34.62v-67.7h-18.44v-31.76h71.48v31.31h-18.42zM608.63 106.21h33.7v67.49h29.32v31.9h-63zM124 106.42v94.8c0 1.31-.13 2.62-.22 4.36h-33.89v-99.16zM137.61 64.21c0 18.37-14.19 33.27-31.46 33-16.8-.27-30.41-14.77-30.54-32.53-.15-18.79 13.28-33 31.08-33 17.45.03 30.89 14.18 30.92 32.53z"/></g></svg>