<svg xmlns="http://www.w3.org/2000/svg" viewBox="0 0 609 310"><g fill="#2c2c2c"><path d="m54.06 291.75v-2h-19.53v-4.21h24.29v6.19c0 5 0 8.53-3 11.14-2.48 2.14-6.8 2.41-13.24 2.41h-13.66c-6 0-10.1-.32-12.93-2.72s-3.61-5.93-3.61-11.32v-10.33c0-5.86.89-9.68 3.61-12s6.8-2.66 12.88-2.66h13.62c11.52 0 15.91 2 15.91 10.74v2h-4.34v-.57c0-6.08-2.42-8-8.91-8h-18.15c-4.09 0-6.6.57-8.17 2.77-1.31 1.83-1.36 4.19-1.36 7.43v10.1c0 3.2 0 5.55 1.36 7.43 1.51 2.2 4.07 2.85 8.17 2.85h18c7.7-.14 9.06-2.08 9.06-9.25zm14.24 13v-38.03h27.24c10.73 0 15 1.31 15 9.06v4.56c0 4.49-1.46 6.49-6.7 7.59 4.13.47 6.28 3 6.28 7.43v9.43h-4.71v-8.49c0-6-2.67-6.44-9.22-6.44h-23.14v14.93zm4.75-33.94v14.61h23.95c6.76 0 8.48-1.23 8.48-6.38v-1.84c0-5.17-1.72-6.39-8.48-6.39zm47.83-4.13h37.5v4.32h-32.93v11.9h31.55v4.24h-31.55v13.41h32.89v4.24h-37.49zm87.49 25v-2h-19.56v-4.21h24.29v6.19c0 5 0 8.53-3 11.14-2.48 2.14-6.8 2.41-13.24 2.41h-13.61c-6 0-10.1-.32-12.93-2.72s-3.61-5.87-3.61-11.25v-10.24c0-5.86.89-9.68 3.61-12s6.74-2.72 12.83-2.72h13.62c11.52 0 15.91 2 15.91 10.74v2h-4.34v-.57c0-6.08-2.42-8-8.91-8h-18.16c-4.09 0-6.6.57-8.17 2.77-1.32 1.83-1.36 4.19-1.36 7.43v10.1c0 3.2 0 5.55 1.36 7.43 1.52 2.16 4.08 2.78 8.17 2.78h18c7.7-.11 9.07-2.05 9.07-9.22zm52 13-22.82-27.7v27.7h-11.62v-37.96h17.22l22.68 27.91v-27.91h11.52v38.07zm29.94-2.2c-3.09-2.3-4.14-5.81-4.14-11.31v-10.26c0-5.86 1-9.64 4.14-12s7.8-2.67 14.77-2.67h13.62c7 0 11.79.37 14.86 2.67s4.08 5.87 4.08 11.52v10.57c0 5.65-1.15 9.27-4.08 11.52-3.15 2.35-7.9 2.67-14.86 2.67h-13.61c-6.79.05-11.55-.22-14.8-2.62zm25.34-6.86c7.43 0 10.21-1.1 10.21-7.28v-5.39c0-6.19-2.83-7.28-10.21-7.28h-7.43c-7.52 0-10.2 1-10.2 7.49v5.28c0 6 2.89 7.17 10.27 7.17zm76.39-16.54c0 6.27-1.57 9.42-6.34 10.57 4 .94 6 3.36 6 7.22v7.81h-11.58v-5.68c0-3.24-1.41-3.92-5.22-3.92h-17.34v9.74h-11.67v-38.1h30.52c11.53 0 15.61 2.57 15.61 12.47zm-34.54-3v9.31h18.5c3.24 0 4.19-1.41 4.19-5 0-2.92-1.24-4.28-4.19-4.28zm43 28.59v-38h17.18l13.55 23.77 13.77-23.72h17v38.07h-11.3v-27.13l-15.7 27.13h-7.6l-15.6-27.13v27.13zm66.53 0 20.83-38h14.86l20.41 38.07h-12.86l-3.71-6.34h-23.15l-3.71 6.34zm35.4-15.51-7.43-13.37-7.14 13.5zm60 15.51-22.83-27.7v27.7h-11.6v-38h17.23l22.67 27.91v-27.86h11.56v38.07zm31.13-37.6v1.24h-3.42v9h-1.4v-8.94h-3.42v-1.23zm1.24 0h2l2.92 8.6 2.9-8.6h2v10.33h-1.31v-8.56l-2.88 8.56h-1.43l-2.93-8.66v8.66h-1.32zm-125-105.6v1.24h-3.41v8.95h-1.39v-8.86h-3.42v-1.24zm1.24 0h2l2.92 8.59 2.9-8.59h2v10.16h-1.32v-8.56l-2.81 8.56h-1.36l-2.93-8.56v8.59h-1.32zm86.48-123.57c-33.43 5-65.81 12.38-94 30l-3.31 2.1c-12 7.54-23.9 15.3-34.79 23.33l7.79 4.67c34.91-27.46 74-46.34 117.54-52l.78.48c-2.6 2.87-6.19 3.63-9.07 5.71-38.38 26.4-100.77 56.16-89.62 113.66l3.11-13c12.17-49.71 67.33-81.81 109.54-106.62 2.59-1.05 3.58-3.39 4.4-5.75-2.61-4.09-8.27-2.28-12.37-2.58zm-189.62 29c-14.47 4.15-29.16-2-44-3.13l-58.48-.2c-.26 3.09 1.24 6.19 2.06 9.26 28.75-1 54.39-1.24 81 3.94 11.69 2.83 24.67-6 36 .26 2.63 1 4.15 4.12 6.78 4.95 1.24-2.34 3.37-4.95 3.9-7.77-6-9.35-17.4-9.35-27.27-7.31zm-230.9 59.8c-3.11.54-6.19 1.32-9.38 1.8 2.12 8.08 6 15.85 13 21.52 4.64 2.09 11.93 3.87 16.37.79-9.65-4.66-16.1-14.73-19.99-24.11zm242.27-9.3c-8.51 5.19-20.91 3.11-30.47 1.82-6-2.34-11.9-4.68-17.86-7.26-2.12 6.5-4.47 13.21-9.08 17.88a9.59 9.59 0 0 1 -9.34 2.32c-8.55-4.38-15-12.17-22.8-17.84-11.07 12.68-26.07 19.91-40.36 26.68 2.12 2.33 4.41 6.27 7 7.78 12.12-4.38 23-11.9 34.11-19.17 8.32 5 17.34 9.62 26.71 11.39 8-4.37 15-10.88 21.53-16.85 12.89 4.4 30.26 3.14 42.1-3.34zm-208.56-3.4a20.48 20.48 0 0 0 -9.36 2.1 38.92 38.92 0 0 0 12.38 20.69c4.44 2.84 11.69 3.89 16.34 1.6-10.07-5.45-15.07-14.52-19.36-24.39zm63.72 29c-.82-1.56-.3-3.36-1.63-4.6l-24-5a21.35 21.35 0 0 0 3.81 11.14c3.66 1.24 8.29.53 11.39 2.08 7.07 22.79 22.29 40.62 42.52 56.46 3.84 2.06 7.78 6.19 11.36 6.19-19.47-19.64-34.18-40.07-43.45-66.27zm-133.66-5.38c-7.21 1.53-14.48 2.54-20.7 6.41-2.66 1.31-5.2 4.14-3.71 7.51 2.91 1.57 5.4-1.3 7.75-2.57 5.26-2.33 7.29 5.41 12.22 3.87a19.47 19.47 0 0 0 4.44-15.19z"/><path d="m37.89 158.07c2-9.91 12.38-17.34 20.17-23.29 32.9-19.72 66.52-38 104.14-46.62-.82-2.6-2.62-5-3.87-7.54-37.55 11.38-73.59 26.68-106.65 48.44-10.64 8.81-24.1 18.16-24.89 32.36a10 10 0 0 0 4.21 7.78c15.23 7 34.91 3.08 50.69-.29-12.38-.75-26.37.56-38.31-3.35-2.71-1.82-5.75-3.87-5.49-7.49zm148.33 15c-8-4.67-11.4-16.6-22.47-13.76-20 4.95-40.16 9.58-60.67 13.22-4.36.54-9.52 1.24-12.9-1.8a6.26 6.26 0 0 0 -1.08 5.69c.8.53 1.6 1.81 2.6 2 15.56 1.85 33.43-1.51 49.53-4.65 7.71-1.76 15.28-3.88 23.29-5.19l60.56 40.94c10.08 6.5 23 7.21 36 6.5 1-.55 2.84 0 3.1-1.6-29.75-4.6-54.93-21.42-77.96-41.33z"/><path d="m149.18 175.69c-9.06 5.13-15.78 14.73-24.29 19.41-4-2.35-2.62-7.27-4.7-10.61a1.77 1.77 0 0 0 -2 1c-2.35 5.14-5.19 12.38-1.35 17.81a13.72 13.72 0 0 0 13.48 0c8.82-6.74 14.48-16.53 20.71-25.59v-2.05zm316.89 4.11c-14-1.81-27.16-9.57-33.89-22-12-23-27.44-53.89-59.34-53.62-1.23 1.24-.23 3.62-1 5.17 19.16 1.34 34.46 19.43 43.24 33.65 6.46 16.86 20.68 34.22 40.09 37.3 4.43.49 7.52 2 11.62 1 .56-.81-.49-1-.72-1.56zm-310.93-57.17c-1.59-4.95-7 0-10.61-.51 2.09 8.78 6.19 16.82 14 22 4.32 2.07 10.81 3.16 14.67.28-9.45-4.21-13.93-13-18.06-21.77zm91-92.59c-1.81-7.84-2.3-16.26-6.72-22.91-6.21-5.77-12.72 1.58-16.55 5.52-13.51 17.63-23 32.36-34.37 50-4.21 8.16-11.69 16.29-15.11 24.43 4.15-.51 8.35-1 12.21-1.82 15.21-21.77 29.84-42.78 44.29-64.15a11.9 11.9 0 0 1 1.5-1 1 1 0 0 1 1 0c.8.47 1 .75 1.53 2.32 3.92 12.53 3.92 26.84 5.76 40.25l9.57-7.43a112.45 112.45 0 0 0 -3.11-25.25z"/></g></svg>