<svg xmlns="http://www.w3.org/2000/svg" viewBox="0 0 889 139"><g fill="#2c2c2c"><path d="M147.5 85.15c.38-6.44-.66-14.21.81-21.92 3.79-19.85 29.4-30.06 44.66-17.7 1.22 1 2.1 1.58 3.57.28 15-13.23 44.75-2.69 45.87 22.63.54 12.26.14 24.56.3 36.84 0 2.32-1.11 2.4-2.86 2.38-6.73-.06-13.47-.14-20.21 0-2.49.07-3-.79-3-3.08.11-10.73.05-21.46.05-32.19 0-.91 0-1.82 0-2.72-.18-2.9-1.37-5.27-4.55-5.18s-4.46 2.41-4.48 5.33c-.06 9.17 0 18.35-.06 27.53 0 3.31 1.48 7.66-.66 9.66s-6.42.48-9.75.56c-3.89.1-7.79-.16-11.66.09-2.85.19-3.41-.89-3.38-3.51.14-10.34.06-20.68.06-31 0-.91 0-1.81 0-2.72 0-3.16-1-6-4.62-5.9s-4.36 2.86-4.34 6.07c.08 11.24-.07 22.49.1 33.74 0 2.81-.82 3.42-3.47 3.34-6.6-.19-13.22-.14-19.82 0-2.06 0-2.66-.61-2.62-2.63.13-6.2.06-12.41.06-19.9zM844.73 70.14c9.44 3.08 13.12 9.71 13.18 18.77 0 5.3-.08 10.6.05 15.89 0 2.13-.46 2.94-2.77 2.89-6.6-.15-13.21-.18-19.81 0-2.59.08-3-1-2.93-3.16.09-4.51.15-9.05-.14-13.56-.34-5.11-2.85-7.65-7.16-8.16-2.35-.27-3.45.15-3.35 3 .24 6.32 0 12.66.12 19 0 2.11-.46 3-2.77 2.91-7-.14-14-.16-21 0-2.44.06-2.65-1-2.65-3q.09-42.66 0-85.32c0-2.37.85-2.69 2.9-2.66 6.87.12 13.74.16 20.6 0 2.52-.06 3 .84 2.93 3.12-.1 12.67-.07 25.34 0 38 0 1.11-.95 2.85.86 3.29 1.56.39 2.65-.9 3.37-2.15a55.32 55.32 0 005-13c1.05-3.81 2.82-5 6.73-4.77 7.22.37 14.46.11 22.56.11-5.45 9.81-5.83 21.45-15.72 28.8zM632.09 68.54c-3.71-1.7-6.83-1.9-9.37.94a7.31 7.31 0 00-1.35 8.29 6.75 6.75 0 007.07 4.37c3.34-.21 5.22-2.26 5.83-5.28a39.62 39.62 0 00.62-7.7c.06-16.17.09-32.33 0-48.5 0-2.85.43-4.09 3.72-3.94 6.59.29 13.21.18 19.82 0 2.23 0 2.79.65 2.77 2.82-.12 18.61.09 37.24-.24 55.85-.31 17-10.86 29.56-26.59 32.6a33.78 33.78 0 01-40-37.21c2.27-19 15.27-30.29 34.46-30 2.39 0 3.38.49 3.32 3.19-.15 8.03-.06 16.03-.06 24.57zM558.19 80.36c0 8.75-.05 16.89 0 25 0 1.88-.62 2.3-2.44 2.43-19.12 1.37-34.32-11.63-35.45-30.46-1.2-19.77 12.74-36.26 31.43-37.2 19.74-1 34.42 12.59 35.24 33 .43 10.58.1 21.2.28 31.79 0 2.39-.93 2.72-3 2.69-6.74-.11-13.48-.2-20.21 0-2.8.1-3.11-1-3.13-3.37-.07-10.33.52-20.68-.38-31-.28-3.28-1.71-6-5.4-6.64a6.69 6.69 0 00-7.46 3.7 7.27 7.27 0 001.14 9c2.64 2.82 5.83 2.47 9.38 1.06zM99.54 80.43v25.22c0 1.77-.67 2-2.27 2.16-18.72 1.32-35-10.89-35.57-31.88-.47-19.43 13.18-34.93 31.68-35.79s33.13 11.69 34.75 30.19c1 11.6.26 23.25.48 34.88 0 1.79-.49 2.49-2.41 2.47-7.13-.1-14.25-.13-21.38 0-2.25 0-2.48-1-2.47-2.77q.11-13.38 0-26.76a29.45 29.45 0 00-.66-6.14c-.86-3.9-3.61-5.82-7.29-5.38-3.34.4-6.15 3.7-6.24 7.33a7.1 7.1 0 006 7.4c1.73.25 3.31-.27 5.38-.93zM701.75 40.09c18.47-.08 33.79 15.48 33.78 34.3 0 18.59-14.8 34.06-32.63 34.15-19.38.1-34.56-14.94-34.51-34.19.06-18.86 14.97-34.18 33.36-34.26zm.19 27c-3.52 0-6.67 3.48-6.59 7.27s3 7 6.39 7c3.66.08 6.65-3.07 6.69-7.07s-2.8-7.2-6.49-7.2zM335.72 63.24c-4.85-5.1-13.49-3.34-15.32 6.75-1 5.48-.1 10.76 4.94 14.15s10.34 2.46 15.48 0a19.51 19.51 0 003.24-2.1c4.78-3.66 4.74-3.65 9 .52 2.86 2.8 5.83 5.5 8.7 8.29.85.82 2.21 1.48.67 3-13.7 13.93-32.19 19.27-49.07 10.79-13.26-6.64-20.3-22.64-17.01-37.85a33.66 33.66 0 0130.89-26.59c16.42-.87 29.67 7.68 35.91 23 .79 1.94.3 2.64-1.33 3.51q-14.17 7.55-28.25 15.29c-1.8 1-2.84 1.2-3.84-1-1.46-3.16-3.14-6.23-4.89-9.23-.88-1.49-.62-2.21.85-3 3.31-1.68 6.54-3.57 10.03-5.53zM481 107.64c-5.26 0-9.67-.1-14.07 0-2.12.07-3-.42-2.92-2.74.16-5.94.14-11.9 0-17.84 0-2.15.77-2.6 2.72-2.54 4.27.12 8.55 0 12.83 0 1.56 0 3.35.13 3.8-1.82.42-1.77-1.18-2.37-2.4-3.08a110.7 110.7 0 01-10.38-6.78c-6.59-4.93-8-11.63-6.11-19 2-7.57 8.07-11 15.24-11.93 9.91-1.35 19.93-.38 29.9-.6 1.58 0 1.94.73 1.93 2.14-.05 5.56-.08 11.13 0 16.69 0 1.84-.56 2.51-2.43 2.45-3.76-.11-7.52 0-11.28 0-1.43 0-3-.16-3.43 1.72-.36 1.61.94 2.28 2.05 2.92a60.12 60.12 0 0111.91 8.61c5.47 5.29 8.06 11.4 5.31 18.9s-8.67 11.33-16.46 12.26a120.73 120.73 0 01-16.21.64zM45.94 77.42c0 11.5.55 23-.14 34.51-.9 15-8.91 22.29-23.91 23-4.14.19-8.3 0-12.44.2-1.95.08-2.71-.37-2.66-2.51.15-6.08.12-12.16 0-18.24 0-1.92.61-2.45 2.45-2.37 12.14.52 10.67-2.68 10.67-11.41 0-18.5.09-37-.07-55.5 0-3.15.92-3.87 3.89-3.77q9.53.33 19.05 0c2.81-.09 3.44.85 3.41 3.51-.14 10.86-.06 21.73-.06 32.6zM787.91 53.82c0 3-.21 6 .06 8.92s-.87 3.44-3.47 3.3a32.84 32.84 0 00-9.28.39c-4.5 1.06-7 3.9-7 8 0 4 2.77 7.09 7.27 7.71a54.33 54.33 0 009.29.31c2.23-.07 3.24.34 3.16 2.91-.19 6.59-.07 13.19-.06 19.78 0 1.35.12 2.52-1.91 2.51-9.36 0-18.69-.22-27.27-4.6-12.7-6.48-19.28-19.05-17.38-33.05 1.93-14.07 11.89-24.28 26.77-27.49 5.74-1.24 11.56-1.14 17.39-1.21 1.82 0 2.54.49 2.47 2.4-.13 3.4-.04 6.76-.04 10.12zM259.23 76.31c0-10 .06-19.89-.05-29.83 0-2.29.51-3.15 3-3.09 6.85.18 13.71.16 20.57 0 2.3-.06 2.75.75 2.74 2.85q-.11 30.41 0 60.81c0 2.34-.84 2.74-2.91 2.71-6.73-.12-13.46-.16-20.18 0-2.59.07-3.28-.72-3.24-3.26.15-10.05.07-20.12.07-30.19zM412.48 42.47c-4.41 0-8.81-.08-13.21 0-2 .05-2.71-.62-2.69-2.66q.14-13.58 0-27.14c0-1.84.59-2.52 2.45-2.51q13.59.09 27.19 0c2 0 2.75.68 2.73 2.7q-.1 13.58 0 27.15c0 1.83-.62 2.5-2.49 2.46-4.66-.07-9.32 0-13.98 0zM396.62 71.28c0-4.53.08-9.05 0-13.57-.05-2 .61-2.7 2.66-2.68q13.61.12 27.2 0c1.84 0 2.53.59 2.51 2.44q-.07 13.57 0 27.15c0 2-.67 2.74-2.7 2.72q-13.61-.11-27.2 0c-1.83 0-2.51-.62-2.47-2.48.07-4.53 0-9.06 0-13.58zM396.62 117.82c0-4.39.06-8.79 0-13.18 0-1.85.3-2.87 2.5-2.85q13.61.12 27.2 0c2.06 0 2.68.79 2.67 2.76q-.1 13.36 0 26.75c0 1.86-.35 2.83-2.55 2.81q-13.61-.15-27.2 0c-2.09 0-2.67-.75-2.62-2.72.07-4.52 0-9.04 0-13.57zM33 6.07a15.12 15.12 0 0115.47 15.37 15.14 15.14 0 01-15.61 15.31 15 15 0 01-15.26-15.2 15 15 0 0115.4-15.48zM287.72 23.8a15.41 15.41 0 11-30.82-.37c.05-8.74 6.71-15.22 15.6-15.17a15 15 0 0115.22 15.54zM874 35.71a10.59 10.59 0 01-10.75-10.77 10.93 10.93 0 0110.71-11 11.22 11.22 0 0111.04 11.16 10.83 10.83 0 01-11 10.61zm-.18-1.57a9.32 9.32 0 009.65-9 9.38 9.38 0 10-18.76-.51 9.21 9.21 0 009.07 9.51z"/><path d="m871.2 25.89v4.31h-.74v-11h3.11a3.05 3.05 0 0 1 1.31.28 3.56 3.56 0 0 1 1.07.75 3.32 3.32 0 0 1 .95 2.32 3.4 3.4 0 0 1 -.57 1.91 3.17 3.17 0 0 1 -1.59 1.23l.86 1.12.9 1.18.9 1.16.85 1.1h-.94l-3.31-4.36zm0-6v5.26h2.37a2.45 2.45 0 0 0 1-.21 2.63 2.63 0 0 0 .82-.57 2.69 2.69 0 0 0 .56-.84 2.6 2.6 0 0 0 .2-1 2.69 2.69 0 0 0 -.2-1 2.76 2.76 0 0 0 -.56-.83 2.83 2.83 0 0 0 -.82-.58 2.61 2.61 0 0 0 -1-.2z"/></g></svg>