<svg xmlns="http://www.w3.org/2000/svg" viewBox="0 0 609 310"><g fill="#2c2c2c"><path d="M414.7 258.82c.25-10.42 2.3-20.53 4-30.68q5-28.87 10-57.73c2.37-13.58 6.31-26.62 13.54-38.48 12.1-19.88 30-30.19 53.05-32a78.27 78.27 0 0126.07 1.91c17.39 4.56 27.33 16 30.66 33.49 2.22 11.69 1.38 23.35-.6 34.95q-6 34.94-12.15 69.82c-2.88 16.08-8.13 31.26-18.35 44.31-10.91 13.93-25.38 21.66-42.79 24-10.8 1.47-21.55 1.31-32.13-1.62-16.57-4.6-26.21-15.66-29.51-32.29-.94-5.12-1.19-10.43-1.79-15.68zm41.28-7.7h.37c0 .71-.05 1.42 0 2.12.55 6.29 3.07 11.28 9.36 13.62a22.87 22.87 0 0025.38-7.26c3.56-4.58 5.34-9.89 6.33-15.51q6.52-37 13-74c.91-5.27 2.23-10.51 1.45-15.95-.82-5.76-3.48-10.31-9.19-12.1-8.7-2.72-16.79-1.36-23.53 5.17-4.64 4.5-6.85 10.32-8 16.52q-6.15 34.87-12.22 69.67c-1.03 5.9-1.93 11.81-2.93 17.72zM50.32 306.72c2.79-15.93 5.54-31.62 8.28-47.32 4-23 8-46 12.07-69 2.3-12.9 3.87-26 8-38.48 4.26-12.9 10.4-24.69 20.31-34.23 10.33-10 22.82-15.39 36.93-17.25 10.59-1.4 21.13-1.23 31.51 1.58 16.77 4.55 26.47 15.67 29.89 32.47 2.51 12.3 1.53 24.59-.59 36.82q-6.65 38.25-13.37 76.48c-3.42 19.58-6.85 39.16-10.3 58.88h-41.15c.7-4.09 1.37-8.09 2.07-12.08q6.47-36.78 12.94-73.55 5-28.44 10-56.88a28.59 28.59 0 000-12.18c-1.59-6.24-5.76-9.68-11.94-10.8-10.34-1.88-19.71 2.71-24.7 12-2.73 5.07-3.65 10.63-4.63 16.19q-7.35 42-14.73 84-4.51 25.72-9 51.47c-.2 1.15-.23 2.1-1.93 2.09-12.79-.08-25.57 0-38.35-.05-.41-.04-.75-.1-1.31-.16zM303.91 306.65q-8.67-102.22-17.33-204.4h43.59q2.22 65.3 4.45 130.6l.59.17c.34-.69.72-1.36 1-2.07l41.3-107.13q3.87-10.06 7.73-20.14c.38-1 .78-1.61 2.07-1.6 13.7.06 27.4 0 41.1 0a7.32 7.32 0 01.91.14c-.29.75-.54 1.44-.83 2.11l-87.42 200.72c-.43 1-.71 1.84-2.15 1.83-11.37-.06-22.74 0-34.11-.05a5.9 5.9 0 01-.9-.18zM246.5 59.81a28.41 28.41 0 1128.43-28.34 28.35 28.35 0 01-28.43 28.34z"/></g></svg>