<svg xmlns="http://www.w3.org/2000/svg" viewBox="0 0 964 310"><g fill="#2c2c2c"><path d="M733.45 6.15q35.22 0 70.46 0c15.55 0 26 9.54 25.92 23.41-.13 13.66-10.29 22.63-25.83 22.65-45.1 0-90.2.11-135.29-.12-5.55 0-7.54.86-7.47 7q.56 47.75 0 95.49c0 5.93 1.67 7.25 7.43 7.21q60.6-.39 121.2 0c5.65 0 7.35-1.51 6.92-7a131.57 131.57 0 010-18.94c.32-4.89-1.18-6.34-6.19-6.28-24.9.25-49.8.21-74.69.07-13.38-.07-23.15-9.46-23.45-22-.32-13.08 9-23 22.71-23.5 10.56-.4 21.14-.06 31.71 0 16 0 31.94 0 47.91.16 28.07.18 47.39 19.37 47.53 47.18 0 10.3.16 20.6 0 30.89-.45 24.92-19.83 44.66-44.82 44.83q-68.35.45-136.7 0c-25.6-.14-45.17-20.19-45.27-45.87q-.19-54.06 0-108.13c.06-26.51 20.16-46.7 46.75-46.89 23.72-.17 47.44 0 71.17 0zM413.4 69.44v109.06a65.48 65.48 0 01-.24 8.41 22.89 22.89 0 01-45.6-1.44c-.39-7.24-.11-14.51-.11-21.77q0-61.78 0-123.59c0-17.9 9.59-29.94 27-33.29 11-2.12 20.16 2.36 27.92 10 30.94 30.41 62 60.72 92.78 91.26 11.25 11.16 22 22.86 33.09 34.5 3-3.46 2.13-5.63 2.13-7.58.08-34.64.05-69.28.11-103.92 0-12 5.84-20.26 16.25-23.55 12.64-4 26.4 4.05 28.92 17a40.31 40.31 0 01.66 7.68c0 47.28.15 94.56 0 141.84-.09 23.8-21.47 39.23-42.66 31.18-5.62-2.14-10-6-14.15-10.19q-60.68-60.64-121.5-121.22c-1.08-1.11-2.24-2.15-4.6-4.38zM66.37 106.85q0-37.2 0-74.41c.04-17.09 9.38-26.28 26.63-26.28q70.8 0 141.59 0c28.6 0 48.36 19.52 48.55 47.86q.11 14.74 0 29.48c-.24 27.83-19.62 47.22-47.52 47.29-38.74.09-77.49.12-116.23-.15-5.61 0-7.65.93-7.44 7.08.52 15 .2 29.95.13 44.92-.08 14.25-9.4 24.3-22.53 24.45-13.54.15-23.09-9.8-23.16-24.48-.09-25.22-.01-50.49-.02-75.76zm107.75-21.95c19.25 0 38.49-.1 57.73.08 4 0 6-.56 5.72-5.25-.42-7.46-.33-15 0-22.44.17-4-1.12-5.13-5.12-5.11q-57.73.18-115.46 0c-4.25 0-5 1.56-4.89 5.27.24 7.24.34 14.51 0 21.74-.23 4.53 1.06 5.94 5.76 5.87 18.71-.32 37.49-.16 56.26-.16zM302.51 106.83q0-37.53 0-75c0-14.81 10-25.8 23.12-25.61s22.73 10.78 22.75 25.26q.11 75.41 0 150.82c0 14.8-9.36 24.83-22.78 24.91-13.73.08-23-10.1-23.07-25.32q-.05-37.53-.02-75.06zM624 271.69c0-7.46.18-14.94-.08-22.4-.13-3.71 1.14-4.79 4.79-4.74 12.41.19 24.84.53 37.22 0 15.74-.73 18.51 6.7 16.31 20.95-.43 2.78-.63 4.86.35 7.71 2.14 6.24 1.72 12.95.12 19.33-1.12 4.51-4.76 7.07-9.38 7.14-15.22.21-30.44.07-45.66.23-3.4 0-3.74-1.7-3.7-4.38.13-7.97.03-15.9.03-23.84zm29.34 18c4.44 0 8.91-.29 13.33.08 5.21.44 5.62-2.41 5.54-6.42-.06-3.77.11-6.86-5.32-6.63-8.65.36-17.33.41-26 0-5.07-.26-5.47 1.94-5.68 6.1-.26 5.35 1.08 7.75 6.87 7 3.76-.5 7.55-.11 11.3-.12zm-.44-23.9c4.7 0 9.41-.21 14.09.05s4.49-2.68 4.54-5.9-.1-5.43-4.34-5.33c-9.15.23-18.32.2-27.48 0-3.43-.08-4.25 1.18-4.45 4.44-.3 4.9.63 7.57 6.38 6.82 3.73-.46 7.54-.07 11.3-.07zM592.93 299.22c-12.15 1.42-12.68 1.64-16.93-8.45-2.85-6.77-6.89-9-13.86-8.16a63.56 63.56 0 01-13.37 0c-4.63-.44-5.8 1.49-5.27 5.6.24 1.85-.12 3.76.08 5.61.44 4.13-.33 6.21-5.45 6.2s-6.16-1.7-6.06-6.43c.31-14.51.28-29 0-43.54-.08-4.26 1-5.65 5.41-5.54 12.68.31 25.37 0 38 .15 11 .13 15.3 4.53 15.46 15.49.11 7.2 1 14.69-6 19.84-2.22 1.62-.26 3.34.53 4.9 2.44 4.73 4.91 9.44 7.46 14.33zm-32.06-44.53h-5.61c-12.83 0-13.41.76-11.8 13.69.29 2.35 1 3.28 3.34 3.26 9.35-.07 18.7 0 28.05-.05 2.15 0 3.27-.92 3.75-3.2 2.31-10.8.1-13.7-10.72-13.7zM425.63 244.69c5.86 0 11.74-.21 17.59.05 7.84.35 12.34 4.33 12.71 12.14.48 10.25.45 20.56 0 30.82-.3 7.54-4.54 11.7-12.09 11.91q-18.63.54-37.28 0c-7.36-.22-11.64-4.35-12.05-12.06a280.41 280.41 0 010-30.82c.44-8.06 4.7-11.48 12.79-12h1.41 16.88zm-1.93 45c6 0 10.95-.17 15.86.05 3.74.18 5.57-.76 5.44-5-.28-8.4-.21-16.81 0-25.22.08-3.63-1.19-5-4.87-4.88-6.32.21-12.65.05-19 .05-15.63 0-15.73 0-15.58 15.83.05 6-2.57 13.69 1.08 17.62 4.03 4.37 11.98.78 17.07 1.56zM720.92 299.81c-5.64 0-11.28.13-16.9 0-7.75-.23-12.09-4-12.35-11.46-.37-10.74-.38-21.52 0-32.27.28-7.45 4.68-11.24 12.43-11.36 11.5-.18 23 .06 34.51-.13 3.61-.07 5 .92 4.82 4.7-.15 3.38-.07 5.73-4.72 5.57-9.85-.34-19.72.18-29.57-.22-5.28-.21-6.08 2-6.3 6.59-.25 5.38 2.89 4.74 6.23 4.72 8.92-.05 17.85.23 26.75-.11 4.84-.19 4.46 2.52 4.54 5.73.08 3.43-.09 5.77-4.71 5.59-8.91-.34-17.85.13-26.76-.2-4.46-.16-6.19.9-6 5.73.14 4.67.54 7.45 6.4 7.15 9.13-.46 18.3-.14 27.46-.11 3.36 0 6.77-1.13 6.86 4.86.09 6.33-3.54 5.25-7.18 5.25zM780.92 244.71c5.4 0 10.82.24 16.2-.09 3.92-.24 4.73 1.35 4.58 4.84-.15 3.21.26 5.8-4.55 5.61-9.61-.37-19.25 0-28.88-.14-4.27 0-7.8 1-7.73 5.93.06 4.74 3.78 5.19 7.58 5.17 6.81 0 13.62-.11 20.42.1 10.66.33 17.54 7.15 17.5 17.06s-7 16.58-17.72 16.73c-10.33.14-20.67-.13-31 .11-3.92.09-5.21-1-5.26-5-.05-4.27 1-5.71 5.47-5.55 9.38.33 18.78 0 28.18.12 4.65 0 9.07-.87 9.17-6.29.1-5.68-4.54-6.19-9.1-6.14-6.81.07-13.62.19-20.43 0-9.86-.34-16.36-7.14-16.23-16.59.13-9 6.71-15.47 16.29-15.76 5.17-.24 10.34-.11 15.51-.11zM67.16 271.88c0-7.49.16-15-.08-22.46-.11-3.54.75-4.94 4.62-4.88 13.61.23 27.24 0 40.85.2 8.61.16 12.86 4.57 13.45 13 1.57 22.37-2.08 26.23-24.74 26.24-2.81 0-5.63 0-8.45 0-4.45.07-9.86-1.31-13.08.73s-1 7.79-1.16 11.9c-.15 5.13-3.85 2.81-6.13 3.13-2.87.4-5.54.48-5.37-4 .31-7.94.09-15.91.09-23.86zm29.21-17.18c-18.55 0-18.55 0-17.9 14.5a4.09 4.09 0 010 .7c-.41 3.07 1 4.05 4 4 9.1-.12 18.21-.07 27.31-.05 2.4 0 3.75-.75 4.24-3.44 2.39-13.24.45-15.73-12.75-15.73zM253 299.4c-6.77 1-12.93 2.11-15.1-6.18-.69-2.68-3-2.48-5.15-2.47-6.33 0-12.67.21-19-.06-5.43-.24-9.8 0-12.08 6.42-1.91 5.39-7.33 2.37-11.17 2.47-1.92.05-.87-2.11-.32-3.26 7.88-16.43 15.68-32.88 23.73-49.22 1.83-3.7 12-3.81 13.81-.13 8.58 17.33 16.85 34.8 25.28 52.43zm-42.8-19.19h17.12c2.63 0 4.18-.38 2.6-3.51-3-5.85-5.76-11.78-8.86-18.16a20.45 20.45 0 00-1.73 2.38c-2.85 6.08-5.71 12.13-9.09 19.29zM523.34 272.23c0 7.72-.12 15.44.06 23.15.08 3.28-.89 4.54-4.35 4.49-13.84-.16-27.69.1-41.53-.16-8.29-.15-12.92-4.8-13.13-13.32-.3-12.62.08-25.25-.22-37.87-.1-4.7 2.73-4 5.45-3.86s6.28-1.43 6.16 3.92c-.27 11.92.05 23.85-.17 35.77-.07 3.89.95 5.4 5.09 5.27 8.91-.27 17.84-.26 26.74 0 3.9.11 4.71-1.41 4.66-4.92-.18-11.69.2-23.39-.2-35.06-.16-4.87 2-5.07 5.79-5.12 4-.06 6 .56 5.76 5.27-.45 7.46-.11 14.96-.11 22.44zM329 245.32c9.35-2.4 15 .14 18.85 8.34 3.09 6.67 7.73 12.62 12.24 19.78 4.21-7 8.65-13 11.63-19.7 3.69-8.26 9.24-11 18.57-8.38-5.85 9.51-11.48 19.05-17.5 28.35-4.36 6.74-8.55 13.35-7 21.93.92 5.1-2.86 4.17-5.77 4.17-3.15 0-7.24 1-6.29-4.48 1.44-8.32-2.42-14.79-6.73-21.34-6.11-9.31-11.86-18.87-18-28.67zM242.26 245.31c8.12-1.63 14-1.33 17.88 6.84 3.45 7.32 8.49 13.89 13.16 21.31 4.35-7.25 8.95-13.56 12.09-20.51 3.7-8.2 9.33-9.92 18.05-7.51-6.1 9.94-11.89 19.72-18.05 29.26-4.13 6.39-7.91 12.7-6.48 20.74.86 4.88-2.45 4.54-5.6 4.38s-7.25 1.23-6.28-4.4c1.4-8-2.15-14.34-6.41-20.72-6.32-9.45-12.08-19.27-18.36-29.39zM836.72 244.65c7.5 0 15 .31 22.48-.11 5-.28 4.23 2.65 4.41 5.69.2 3.39-.47 5.05-4.48 5-5.31-.12-12.41-2.44-15.53 1-3.61 3.94-1 11.1-1.13 16.85-.24 7.46-.37 14.95 0 22.4.31 5.65-3.38 4.17-6.39 4.4-3.34.25-5.7.17-5.56-4.52.35-11.43-.1-22.88.22-34.31.12-4.48-.93-6.51-5.74-6-3 .34-6.08 0-9.13.08-3.6.09-6.63.63-6.51-5.1.11-5.14 2.19-5.54 6.24-5.41 7.06.2 14.09.03 21.12.03zM134.54 272.86c0-7.95.29-15.92-.11-23.85-.24-4.92 2.59-4.46 5.72-4.39 3 .07 6-.81 5.88 4.26-.34 11.93.05 23.87-.2 35.79-.09 4 1.1 5.24 5.12 5.12 9.14-.28 18.31.12 27.46-.18 4.12-.14 4.57 1.71 4.42 5-.13 2.88.41 5.39-4.12 5.3-13.37-.26-26.76-.18-40.14 0-3.74.06-4.14-1.62-4.08-4.64.15-7.43.05-14.92.05-22.41zM872.24 245.53l11.46-.09v1.73h-4.76v12.52h-1.94v-12.44h-4.76M885.42 245.44h2.76l4.07 11.96 4.03-11.96h2.72v14.25h-1.83v-8.34-1.42-2.16l-4.01 11.92h-1.9l-4.08-12.06v12.06h-1.84zM862.78 50.69a22.22 22.22 0 1122.22-22.22 22.25 22.25 0 01-22.22 22.22zm0-41.7a19.49 19.49 0 1019.49 19.48 19.51 19.51 0 00-19.49-19.47z"/><path d="m857.17 31.27v9.9h-1.69v-25.39h7.13a7 7 0 0 1 3 .66 8.36 8.36 0 0 1 2.45 1.71 7.81 7.81 0 0 1 1.62 2.45 7.48 7.48 0 0 1 .57 2.89 7.71 7.71 0 0 1 -1.25 4.37 7.12 7.12 0 0 1 -3.66 2.83l2 2.58 2.08 2.7 2.06 2.67 1.94 2.53h-2.22l-7.63-9.9zm0-13.79v12.09h5.44a5.74 5.74 0 0 0 2.35-.48 6.1 6.1 0 0 0 1.89-1.31 6.3 6.3 0 0 0 1.27-1.92 6.16 6.16 0 0 0 0-4.67 6.3 6.3 0 0 0 -1.27-1.92 5.94 5.94 0 0 0 -1.85-1.27 5.74 5.74 0 0 0 -2.35-.48z"/></g></svg>