<svg xmlns="http://www.w3.org/2000/svg" viewBox="0 0 817 310"><g fill="#2c2c2c"><path d="M407.8 90.17c6.08 4.34 10.4 9 13.21 15 5.15 10.95 4.41 22.14.17 32.89-9.24 23.38-23.95 42.63-45.61 56-12.57 7.66-26.57 11.69-41.07 14.03-16 2.58-32.06 3.31-48.23 3.59-54.31.92-108.62.6-162.93.3-19.45-.11-38.92.33-58.35-.56-14.34-.66-28.43-3.06-41.56-9.64-17.13-8.6-21.86-22.9-17.88-40.07 2.94-12.71 10.53-23.11 17.45-33.8.93-1.44 2.31-1.19 3.64-1.19h26.4c-1.55-1.93-2.69-3.25-3.71-4.65-7.45-10.26-8-21.84-6-33.69 3.15-18.82 11.86-35 25.07-48.6 12.92-13.26 28.7-21.78 46.5-26.73 12-3.35 24.32-4.63 36.69-5.64 37.14-3 74.36-1.85 111.55-2 39.72-.13 79.45-.17 119.18.2 14.88.14 29.78 1.52 43.8 7.3 13 5.36 22.77 13.88 26.15 28.09 1.74 7.3 0 14.33-2.79 21.12-3.86 9.32-9.6 17.63-14.27 26.52-.81 1.53-2 1.52-3.43 1.52-7.69 0-15.37.01-23.98.01zm-32.06-1.37h19.43a3.61 3.61 0 003.75-2.15c2.44-4.58 5.15-9 7.66-13.56 3.45-6.26 6.29-12.81 6.77-20 .94-14.32-6.33-24-18.29-30.65s-25-8-38.06-8c-55.78 0-111.56-1-167.33.33-14.35.35-28.66.94-42.77 3.61s-27 7.63-37.77 17.23c-13.37 11.95-22.39 26.84-28.62 43.39-6.43 17.12-.92 35.19 13.67 46.13.42.32 1 .61.68 1.56h-3.24q-13.25 0-26.48 0c-1.34 0-2.69-.21-3.53 1.34-5.38 9.88-11.56 19.34-14 30.62-3.81 17.53 4.48 32.67 21.35 38.7 11 3.93 22.53 4.79 34 5.16 24.07.8 48.16.13 72.26.65 18.18.4 36.39.39 54.6-.28 18.64-.69 37.31.23 56-.75a241.72 241.72 0 0028.57-2.92c21.64-3.77 39.86-13.54 53.31-31.24 8.71-11.47 16.33-23.58 20.43-37.55 2.36-8.05 2.71-16.06-.11-24.2-2.38-6.68-6.33-12.1-12.28-17.42zM214.33 300.53c-2-7.89-4.09-15.78-6.27-24.18-4.9 3.45-10.81 5-13.14 11.62-1.83 5.19-4.52 10.07-5 15.69-1.06-1-2.36-.55-3.55-.55-9.67 0-19.35 0-29 0a7.87 7.87 0 01-4.25-.74 50.67 50.67 0 007.24-12.16c6.26-13.88 12.66-27.7 19-41.56 1.3-2.87 2.66-5.77 2.37-9-.17-1.94 1.17-1.52 2.21-1.52h36.51c-7.71 7.91-10.19 18.24-15.28 27.68a6.63 6.63 0 004-1.38q14.53-9 29-18.14c2.68-1.7 5.34-3.5 6.19-6.87.29-1.13 1-1.3 2-1.3 9.34 0 18.68 0 28.09.23-11.91 4.47-22.14 11.94-33.13 18-1.2.66-2.39 1.19-1.74 3.06 4.34 12.55 7.74 25.42 12.72 37.76.42 1 1 2 1.59 3.2a23.17 23.17 0 004.51-7.24q10.56-22.87 21-45.82c.94-2.06 1.87-4.23 1.67-6.5-.24-2.63 1-2.82 3.13-2.81q35 .09 69.92 0c.88 0 1.76.09 2.8.15-.83 3.45-1.76 6.7-2.34 10-.41 2.26-1.19 3.12-3.5 2.19a21.53 21.53 0 00-3.61-.83c-2.37-2.62-5-1.19-7.62-.55q-11.37.52-22.74 0c-2.1-.61-4.48-2.34-5.57 1.32a16.07 16.07 0 00-4.72 10.24v-.05c-1.12.41-1.68 1.06-1 2.26l-.16.28-.48-.22.38.35a.59.59 0 01-.18.61c.1 1.18.87 1.44 1.89 1.41 10.58-.36 21.2.76 31.77-.6 1.07-.14 2.47-.59 3.19.39s-.53 1.81-.8 2.75c-1.63 5.71-4.45 8.13-11.24 7.23-8.66-1.15-17.58-.29-26.39-.27-1.09 0-2.29-.36-3.2.62-3.22 5.51-5.41 11.49-8.49 17.69 15.19-.77 29.82 1.23 45-1.91l-7.78 10.71c-2.19 1.33-4.58 1.39-7.07 1.39q-50.3-.08-100.6 0c-2.66-.07-5.66.53-7.33-2.63zM721.14 250.92a115 115 0 01-7.84 17.08c-2.95 5.1-7.95 6.9-13.41 7.11-3 .12-2.9 1.28-2.47 3.44 1.5 7.47 3.06 14.93 4 22.5-.78 1.82-2.22 2.1-4 2.08-8-.08-16 0-24 0-2.68 0-5.4.25-8-.65-.73-7-1.59-14.07-2.16-21.12-.48-6-.34-5.73-6.15-6.07-3.47-.19-5.16.92-6.44 4.16-2.79 7.1-6.05 14-9.12 21-.63.44-.62.88 0 1.32v1.37c-10.6 0-21.2 0-31.79 0-1.62 0-3.14 0-4.26-1.4 6.43-8.59 9.54-18.85 14.3-28.28 1.11-2.2 2.2-4.41 3.3-6.62a1.48 1.48 0 00.17.28.83.83 0 00.26.16c1.9-2.77 3.63-5.6 3.45-9.15a12.73 12.73 0 004.44-9.77.43.43 0 01.06-.46c3.15-.26 2.52-3.16 2.46-4.63-.15-3.63 1.52-3.93 4.47-3.88 26.22.44 52.46-.69 78.67.65h-.05c3.68 2.55 5 5.89 3.58 10.24-.07.05.39.38.53.64zm-41.62 13.3a7.41 7.41 0 004.26-4.47c.92-2.29 2-4.51 3-6.78 1.37-3.13 1-3.79-2.43-3.83-5.87-.07-11.75 0-17.62 0-1 0-2-.23-2.59 1-2 4.75-4.63 9.22-6.24 14.14a1.65 1.65 0 001.71.81h18.24c.74.02 1.38-.09 1.67-.87zM481.15 300.32c4.73-7.39 7.76-15.61 11.53-23.46a1.61 1.61 0 00.18-1.58c-.67-.84-1.61-.67-2.49-.67h-18.83c-.88 0-1.82-.16-2.47.68l-9.57 20.33c-2.12.88-1.92 2.84-1.92 4.54 0 2.2-.94 3-3.07 2.95-9.89-.06-19.78 0-29.67 0-1.32 0-2.5-.07-2.9-1.63l.26.14-.27-.12c.5 0 .73-.23.67-.73l.1.29-.12-.28a3.27 3.27 0 001.14-.39c.3-.26 0-.57-.3-.73 8-14.55 14.09-30 21.16-45 2-4.26 4.89-8.4 4.94-13.19 0-3.67 1.62-3.6 4.3-3.57 11.4.11 22.81.05 35 .05-7.13 6.73-9.51 15.47-13.44 23.35-.47.93-1.45 1.84-.83 3.11.38.21.75.62 1.13.62q10.77.06 21.54 0c.36 0 .72-.44 1.08-.68q4.37-9.51 8.7-19a25.75 25.75 0 00.76-2.58c.5-1.54-.81-3.77.84-4.59 1.36-.68 3.32-.19 5-.19h33.31c-2.69 3-5.11 5.55-6.59 8.77-2.57 5.64-5.22 11.24-7.8 16.87q-6.65 14.43-13.22 28.87c-1.06 2.35-1.86 4.82-2.78 7.23a1.23 1.23 0 00-1.2 1.35c.07 1.68-.85 2.05-2.33 2q-15 0-30.07 0c-1.52 0-2.39-.43-2.28-2.08l.9-.24zM756.29 292.88c4.67-.72 5.32-4.88 6.54-8.19.83-2.22-1.62-1.83-2.91-1.84-9-.06-18.1 0-27.15-.06a78.1 78.1 0 01-8.78-.56c-6.74-.81-9.08-4.2-6.58-10.53a179.8 179.8 0 019.59-20.89c4.67-8.49 12.5-12.66 22.08-12.76 20.93-.21 41.86-.06 62.79-.11 2 0 2.63.33 1.78 2.44a87.43 87.43 0 00-2.84 8.65c-.46 1.6-.95 2.28-2.82 1.54a26.36 26.36 0 00-10-1.43c-11 0-22 0-32.92 0-4.78 0-7.31 2.22-8.1 6.87-.18 1.1 0 1.77 1.24 1.87 1.57.12 3.15.37 4.72.38 9.16.06 18.33.07 27.49.09a21.78 21.78 0 017.29 1.34c4.7 1.67 6.63 4.9 4.75 9.55-3.32 8.24-6.52 16.61-11.49 24.06s-12.51 9.92-21 10.33c-.84-.83-1.91-.56-2.89-.56h-58.08c-1 0-2.06-.26-2.93.51-.16-4.33 1.81-8.23 2.49-12.39.16-1 .81-.73 1.53-.5 2.33.76 4.69 1.41 7 2.11-2.08 1.22.09.75.34.75q19.1 0 38.2 0a8.69 8.69 0 001.23-.18 2.69 2.69 0 00-.33-.41 1 1 0 00-.24-.08zM171.63 248.18c.06 2.43-.61 3.55-3.3 2.27a24 24 0 00-4.84-1.21c.43-1-.18-1.08-1-1.08h-38.12c-.72 0-1.44 0-1 1-3.71.94-4.21 4.35-5.44 7.15-.54 1.24.61 1.61 1.46 1.75a24.79 24.79 0 004 .27h26.44a23 23 0 0110.18 2.07c3.36 1.65 4.86 4.24 3.63 7.74-3.22 9.12-6.82 18.16-12.42 26.11-4.54 6.44-11.41 8.86-19.06 9.35-1.17-1-2.59-.55-3.89-.55-18.49 0-37-.09-55.45.05-2.81 0-4.71-.36-5.11-3.46.53-2.41 1.12-4.81 1.57-7.23.34-1.87 1.14-2.05 2.78-1.29a18.55 18.55 0 007.89 1.6q18 0 35.93 0c3.91 0 8.36-4.55 8.06-8.31-.15-1.87-1.89-1.59-3.16-1.6-7.57-.05-15.14 0-22.71-.07-4.74 0-9.49.36-14.19-.55-5.58-1.09-7.77-4.12-5.82-9.45a133.41 133.41 0 0110.72-23.29 21.8 21.8 0 0114.22-10.06c2.18 1.47 4.33-.16 6.51-.14 19.45.16 38.91.09 58.37.09 4.35 0 4.35 0 3.79 4.29a1.77 1.77 0 00.58 1.83c.11.44-.13.63-.51.72-1.05.6-.94 1.27-.11 2zM568.27 275.38c-2.22 4.88-4.47 9.76-6.65 14.66-.38.87-1.19 1.69-.74 2.81 0 .2-.11.46 0 .57a.84.84 0 00.58.17q17.12 0 34.22 0a3.2 3.2 0 001-.1c0-.6-.52-.56-.88-.75l9.58-1.86-8.41 11.59a21.85 21.85 0 01-3.65.59q-34.29 0-68.58.05c-1.57 0-2.64-.41-3-2 6.48-9.22 10-19.92 14.86-29.93 3.7-7.61 7.07-15.38 10.55-23.1 1.2-2.67 2.41-5.39 2.1-8.42-.22-2.2 1.29-1.67 2.41-1.68h16.3c17.77 0 35.54.05 53.31-.06 2.87 0 4.25.26 3 3.59a57.85 57.85 0 00-1.77 7.57c-.24 1-.38 1.79-2 1.43-10.73-2.44-21.67-.62-32.46-1.48-5.83-.46-9.35 1-10.84 6.91-.74 2.91-2.87 5.35-3.45 8.39.89 1.3 2.26.77 3.42.78h23.73c.86 0 1.72-.1 2.58-.16l-.06-.34-1.33-.25 10.91-1.88c-2.15 4.71-4.15 9-6.1 13.4-.46 1-1 1.24-2.11.92-1.5-.44-3.07-.64-4.61-.95-.44-1.82-1.94-1.21-3.06-1.22q-12.86-.06-25.73 0c-1.08 0-2.32-.43-3.12.75zM354.32 303.66a13.36 13.36 0 01-5.59-1.11c-5.37-1.9-7.25-6.11-5.49-12.36 1.25-4.47 3.44-8.57 5.37-12.76 3.25-7.07 6.4-14.19 9.72-21.23 5.54-11.74 14.92-17.92 27.87-18.1 17.65-.24 35.31-.07 53-.18 2 0 2.61.51 2.08 2.46-1 3.8-1.93 7.64-3 11.44-.22.78-.09 2.15-1.85 1.6-9.17-2.86-18.63-1.46-28-1.77-1.92-.06-3.84 0-5.77 0-3.81-.06-6.29 1.58-7.87 5.16-4.15 9.39-8.58 18.66-12.8 28-2.08 4.61-1.49 5.39 3.7 5.41 12.1 0 24.2.27 36.16-2.11a12.86 12.86 0 012 0l-10.23 14.3a22.41 22.41 0 01-6.68.69q-24.52 0-49.07 0c-1.19.01-2.49-.41-3.55.56z"/><path d="M717.07 240c-26.21-1.34-52.45-.21-78.67-.65-2.95-.05-4.62.25-4.47 3.88.06 1.47.69 4.37-2.46 4.63.54-2.86 2.68-5.45 1.4-8.63-.34-.85.21-1.22 1-1.22h2q35.25 0 70.48 0c3.71-.01 7.48-.38 10.72 1.99zM172.28 245.46a1.77 1.77 0 01-.58-1.83c.56-4.28.56-4.29-3.79-4.29-19.46 0-38.92.07-58.37-.09-2.18 0-4.33 1.61-6.51.14a17.53 17.53 0 016.91-1.33q31.2-.06 62.39 0c.55 0 1.1.1 1.9.18-.67 2.48-1.31 4.85-1.95 7.22zM214.33 300.53c1.68 3.16 4.65 2.56 7.42 2.56q50.3 0 100.6 0c2.49 0 4.88-.06 7.07-1.39-.44 1.7-1.56 2.18-3.27 2.18q-54.47 0-108.91 0c-2.71.06-2.89-1.41-2.91-3.35zM300.66 275.24c.91-1 2.11-.62 3.2-.62 8.81 0 17.73-.88 26.39.27 6.79.9 9.61-1.52 11.24-7.23.27-.94 1.46-1.85.8-2.75s-2.12-.53-3.19-.39c-10.57 1.36-21.19.24-31.77.6-1 0-1.79-.23-1.89-1.41.39.19.77.56 1.15.55 12.59-.31 25.25 1.14 38.37-1.78l-6.25 13.66a1.31 1.31 0 01-1.64.82c-12.02-2.96-24.28-.96-36.41-1.72zM521.65 301.11c.4 1.59 1.47 2 3 2q34.29-.06 68.58-.05a21.85 21.85 0 003.65-.59c-.39 1.43-1.49 1.43-2.68 1.43h-74.06c-.18 0-.36-.16-1.35-.65zM123.38 249.2c-.45-1.08.27-1 1-1h38.16c.78 0 1.39.06 1 1.08zM67.76 299.7c.4 3.1 2.3 3.48 5.11 3.46 18.48-.14 37-.08 55.45-.05 1.3 0 2.72-.47 3.89.55-8.8.07-17.61.19-26.41.21-12.87 0-25.74 0-38.78 0a7 7 0 01.74-4.17zM706.11 303.6c.87-.77 1.93-.51 2.93-.51h58c1 0 2.05-.27 2.89.56-21.28.21-42.55.35-63.82-.05zM354.32 303.66c1.06-1 2.36-.55 3.56-.56q24.54 0 49.07 0a22.41 22.41 0 006.68-.69 2.09 2.09 0 01-2.33 1.49zM421.94 301.47c.4 1.56 1.58 1.63 2.9 1.63 9.89 0 19.78-.05 29.67 0 2.13 0 3.06-.75 3.07-2.95 0-1.7-.2-3.66 1.92-4.54-.34 2.31-1.62 4.47-1.2 6.9.25 1.44-.65 1.37-1.6 1.37h-37.2zM480.61 301c-.11 1.65.76 2.09 2.28 2.08q15-.06 30.07 0c1.48 0 2.4-.36 2.33-2a1.23 1.23 0 011.2-1.35c.6 3.19-.29 4.38-3.94 4.28-11.39-.29-22.79-.11-34.57-.11zM665.35 302.43c2.61.9 5.33.65 8 .65h24c1.83 0 3.27-.26 4-2.08l1.4 2.84h-12.64c-7.36 0-14.71 0-22.07-.13-.95.02-2.73 1.02-2.69-1.28zM756.29 292.88a1 1 0 01.32.12 2.69 2.69 0 01.33.41 8.69 8.69 0 01-1.23.18q-19.1 0-38.2 0c-.25 0-2.42.47-.34-.75zM605.47 301.7c1.12 1.38 2.64 1.41 4.26 1.4h31.79c-.14 1.32-1.18.77-1.81.77-11.92 0-23.84 0-36 0 .15-1.21 1.05-1.62 1.76-2.17zM153.12 302.35a7.87 7.87 0 004.25.74h29c1.19 0 2.49-.42 3.55.55q-18.37.12-36.76.22c-.43 0-1.26.24-1-.67.07-.33.62-.56.96-.84zM595.75 292.74c.36.19.93.15.88.75a3.2 3.2 0 01-1 .1q-17.1 0-34.22 0a.84.84 0 01-.58-.17c-.09-.11 0-.37 0-.57h33.07 1zM568.27 275.38c.8-1.18 2-.75 3.1-.76q12.87 0 25.73 0c1.12 0 2.62-.6 3.06 1.22-10.61-1.02-21.26-.34-31.89-.46zM602 264.36l1.33.25.06.34c-.86.06-1.72.16-2.58.16-7.91 0-15.82 0-23.73 0-1.16 0-2.53.52-3.42-.78zM498.26 264.36c-.36.24-.72.68-1.08.68q-10.77.06-21.54 0c-.38 0-.75-.41-1.13-.62zM469.07 275.29c.65-.84 1.59-.68 2.47-.68h18.83c.88 0 1.82-.17 2.49.67z"/><path d="M721.14 250.92c-.19-.26-.6-.59-.54-.77 1.46-4.35.1-7.69-3.58-10.24 3.21.07 4.62 2.06 5.25 4.89a1.85 1.85 0 000 2.66 7.09 7.09 0 01-1.13 3.46zM627 258.09c.18 3.55-1.55 6.38-3.45 9.15a.83.83 0 01-.26-.16 1.48 1.48 0 01-.17-.28c.73-3.13 2.44-5.8 3.88-8.71zM306.85 260.48a16.07 16.07 0 014.72-10.24 59.68 59.68 0 01-4.72 10.24zM631.41 248.27a12.73 12.73 0 01-4.41 9.73 69.86 69.86 0 014.41-9.73zM339.87 248.93c2.6-.64 5.25-2.07 7.62.55z"/><path d="M311.56 250.26c1.09-3.66 3.47-1.93 5.57-1.32-1.75.86-4.07-.64-5.57 1.32zM305.88 262.69c-.68-1.2-.12-1.85 1-2.26-.33.76-.66 1.51-1 2.26zM171.63 248.18c-.83-.73-.94-1.4.14-2zM722.23 247.46a1.85 1.85 0 010-2.66 4 4 0 010 2.66zM423.42 299.65c.31.16.6.47.3.73a3.27 3.27 0 01-1.14.39zM481.15 300.32l.35.48-.9.24zM641.49 301.72c-.63-.44-.64-.88 0-1.32zM305.62 263.1l-.38-.35.48.22zM594.93 292.83h-1a.61.61 0 011 0z"/><path d="M422.6 300.76c.06.5-.17.74-.67.73.23-.24.45-.49.67-.73zM657.93 264.3l21.59-.08c-.29.76-.93.89-1.64.89h-18.24a1.65 1.65 0 01-1.71-.81zM272.13 126.7a.51.51 0 01-.76-.37c-.92-1.74-2.58-1.55-4.14-1.56-32.66-.16-65.33.48-98-.68-2.25-.08-4.48-.23-6.72-.47-3-.33-6.25-.92-9.26.49-8.2-.16-16.2-1.41-23.72-4.79-9.18-4.12-13.11-12.43-10.49-23.08 4-16.11 11.12-30.73 22.18-43.22a55.39 55.39 0 0119.53-13.76c14.92-6.54 30.73-8.69 46.83-9.45 1 1.12 2.33.73 3.51.67 13.07-.66 26.12-1.43 39.22-1.35 29.28.16 58.57-.35 87.85.64a.66.66 0 01.51.1 4 4 0 004.77-.06 44.47 44.47 0 0118.74 5.19c9.17 5 12.66 13.05 10.36 23.64-1.34 6.19-4 11.92-6.48 17.72a2.17 2.17 0 01-2.29 1.52q-28.62 0-57.27 0c1.72-9.93.5-12.08-7.88-14.22-.63-1.74-1.63-1.42-2.75-.5l-1.34-.08c-.22-.23-.45-.46-.67-.7a.91.91 0 00.09-.31c0-.09-.11-.23-.17-.23-7.2 0-14.42-.66-21.6.35l-1 .37-5.07.05c-.59-.91-1.52-.83-2.42-.83-9.55 0-19.1 0-28.65 0-1.16 0-1.9.28-2.29 1.35l-4.72.06c-3.89-1.55-7.95-.37-11.93-.62-.69 0 .36.72.36 1.17a65.49 65.49 0 00-20.34 3.54c-.46-.8-1-.59-1.71-.27a17.32 17.32 0 00-9 11.19c-1.21 4 .23 6.78 3.4 7.84.85 3.06 3.74 2.85 5.95 3.47 5.59 1.59 11.43 1 17.12 1.25 17.13.85 34.3-.11 51.47.71 14.56.7 29.17.16 43.75.14 1.08 0 2.3.38 3.16-.7h2.73a1.19 1.19 0 002 .17l4.54.36 1.4.2.87.12c1.21.91 2.61.48 3.93.55a43 43 0 0116.95 5.34c8.11 4.77 11.49 12.07 9 23-5.14 22.5-15.68 41.77-36.25 54-11 6.51-23.29 8.93-35.78 10.56-1.78.23-3.57.36-5.36.53-1.69-1.06-3.47-.53-5.25-.34-5.35.58-10.73 1.63-16.07 1.51-4.26-.1-8.43-.77-12.49 1a10.15 10.15 0 01-4.18.13c-.33-.27-.66-.76-1-.77-4.45-.06-8.9-.06-13.36-.06-.79 0-1.18.5-1.31 1.24a42.37 42.37 0 01-8.12.14c-.87-1-2.07-.72-3.16-.72q-24.37 0-48.77 0c-1.09 0-2.29-.33-3.16.71l-6.08-.1c-4-2.42-8.05-1.5-12.15-.49h-1.56c-2.9-1.19-5.81-1.9-9-1-.74.21-1.7-.41-2.57-.55-3.33-.54-6.63-1.61-10.06-.69a42 42 0 01-11.37-3.1c-8.47-3.7-12.09-9.59-11.22-18.77.89-9.41 5.58-17.53 9.23-26 .54-1.23 1.65-1 2.64-1h55c2.32 0 2.41.68 1.55 2.51-4.35 9.33 1.22 12.44 8.3 13.86a59.09 59.09 0 0010.46.8c22.83.47 45.66.25 68.48-.32 8-.2 16.06-.15 23.82-2.6 2.09.75 3.36-.08 4-2.08.56 0 1.24.15 1.65-.11 4.29-2.78 6.57-7.11 7.69-11.78.4-1.68.95-4.05-.25-6.14-1.71-3-9.74-6.48-13-5.39-.46.13-.62.71-.85 1.07z"/><path d="M338.18 29.77c-29.28-1-58.57-.48-87.85-.64-13.1-.08-26.15.69-39.22 1.35-1.18.06-2.52.45-3.51-.67 9.65-1.06 19.35-1.14 29-1.52 20.2-.8 40.41-.64 60.61-.22 12.86.26 25.74-.19 38.57.91.84.07 1.93-.39 2.4.79zM153.27 124.11c3-1.41 6.22-.82 9.26-.49 2.24.24 4.47.39 6.72.47 32.65 1.16 65.32.52 98 .68 1.56 0 3.22-.18 4.14 1.56-16.94-.08-33.89-.23-50.83-.24-20.89 0-41.75-.81-62.63-1.3a37.08 37.08 0 01-4.66-.68zM310.17 90.83c-.86 1.08-2.08.7-3.16.7-14.58 0-29.19.56-43.75-.14-17.17-.82-34.34.14-51.47-.71-5.69-.28-11.53.34-17.12-1.25-2.21-.62-5.1-.41-5.95-3.47 6 3.05 12.39 3.48 19 3.53 22.84.15 45.67.47 68.51.72 8.14 1.22 16.29.81 24.44.22l4.82.19.93.06zM157.32 188.61c.87-1 2.07-.71 3.16-.71q24.39 0 48.77 0c1.09 0 2.29-.32 3.16.72-11.37.63-22.76.38-34.15.37-6.98.01-13.96-.24-20.94-.38zM232.73 63.08c.39-1.07 1.13-1.36 2.29-1.35 9.55.06 19.1 0 28.65 0 .9 0 1.83-.08 2.42.83-7 .13-13.92.28-20.89.38-4.15.11-8.31.11-12.47.14zM272.13 126.7c.23-.36.39-.94.7-1 3.28-1.09 11.31 2.44 13 5.39 1.2 2.09.65 4.46.25 6.14-1.12 4.67-3.4 9-7.69 11.78-.41.26-1.09.08-1.65.11a23.92 23.92 0 007.84-10.27c2.11-5.67.3-9.3-5.52-11.11a22.15 22.15 0 00-6.93-1.04zM240.37 187.94c4.06-1.78 8.23-1.11 12.49-1 5.34.12 10.72-.93 16.07-1.51 1.78-.19 3.56-.72 5.25.34a260.08 260.08 0 01-33.81 2.17z"/><path d="M188.75 86c-3.17-1.06-4.61-3.81-3.4-7.84a17.32 17.32 0 019-11.19c.66-.32 1.25-.53 1.71.27-3.8 2.26-7.26 4.85-8.88 9.21-1.26 3.47-1.41 6.75 1.57 9.55zM272.18 62.18c7.18-1 14.4-.31 21.6-.35.06 0 .16.14.17.23a.91.91 0 01-.09.31l-1.37.48-20.28-.28a.32.32 0 00-.03-.39zM220.53 188.48c.13-.74.52-1.24 1.31-1.24 4.46 0 8.91 0 13.36.06.33 0 .66.5 1 .77a116.94 116.94 0 01-15.67.41zM115.92 185.76c3.43-.92 6.73.15 10.06.69.87.14 1.83.76 2.57.55 3.17-.91 6.08-.2 9 1a106 106 0 01-21.63-2.24zM139.09 188c4.1-1 8.19-1.93 12.15.49a70.48 70.48 0 01-12.15-.49zM216.44 63.69c0-.45-1.05-1.21-.36-1.17 4 .25 8-.93 11.93.62zM300.64 90.43c-8.15.59-16.3 1-24.44-.22 8.15.01 16.3-.4 24.44.22zM276.8 149.05c-.66 2-1.93 2.83-4 2.08zM343.46 29.81a4 4 0 01-4.77.06c1.59 0 3.17-.56 4.77-.06zM295.87 63.15c1.12-.92 2.12-1.24 2.75.5zM325.64 92.28c-1.32-.07-2.72.36-3.93-.55a5.94 5.94 0 013.93.55zM314.9 91.05a1.19 1.19 0 01-2-.17 2.1 2.1 0 012 .17z"/><path d="M292.49 62.85l1.37-.48c.22.24.45.47.67.7a2.08 2.08 0 01-2.04-.22zM320.84 91.61l-1.4-.2a1.2 1.2 0 011.4.2zM272.18 62.18a.32.32 0 010 .39h-1zM306.39 90.68l-.93-.06a.64.64 0 01.93.06z"/></g></svg>