<svg xmlns="http://www.w3.org/2000/svg" viewBox="0 0 964 310"><g fill="#2c2c2c"><path d="M404.54 224.43c-16.66-.86-32.65-1.1-48.5-2.69-13-1.3-19.48-7.59-20.45-20.46a308.34 308.34 0 01-.38-45.18c1.11-15.35 8.78-22.18 24.36-22.88 20.92-.94 41.89-1.07 62.84-1.21 9-.06 18 .43 26.91 1.22 14.72 1.29 22.39 7.67 23.39 22.23a337.17 337.17 0 01-.48 47.14c-.82 11.33-7.56 17.83-19.08 19-16.35 1.62-32.83 1.97-48.61 2.83zm-.88-24.43c8.64 0 17.3.33 25.92-.09 9.3-.45 12.55-3.63 13.18-12.79a141.51 141.51 0 00-.18-18.87c-.55-8.71-3.6-12.43-12.23-12.63-17.93-.43-35.89-.24-53.83.23-7.07.19-10.26 3.63-10.85 10.64a164.84 164.84 0 00-.41 20.37c.37 9 4.07 12.66 13 13 8.44.36 16.92.14 25.4.14zM97.23 161c.27-6.95-4.08-8.57-9.38-8.57-14.47 0-28.94.14-43.41.31-4 .05-7.36 1.42-7.49 6.16-.14 5.12 3.38 6.36 7.6 6.53 14.3.57 28.6 1 42.9 1.7 8.29.4 16.64.75 24.85 2 12.38 1.83 18 8.45 18.34 20.95a92.8 92.8 0 01-.84 15.36c-1.28 9.18-7.09 14.43-16 16.17a71.09 71.09 0 01-14.35 1.63c-24.27-.26-48.58-.12-72.79-1.52-15.11-.87-22.48-8-20.14-28.7h28.57c3.4 9.73 3.52 10 13.93 10 14.48.11 29 0 43.43-.09 3.63 0 7.06-.72 8.17-5 1.46-5.63-1.08-8.93-7.7-9.22-17.29-.76-34.59-1.19-51.88-2a141.24 141.24 0 01-18.83-2c-7.77-1.41-13.2-6.32-14.09-14.19a78.69 78.69 0 01.26-21.68c1.63-9.67 8.73-15.16 20.4-15.69 19.77-.89 39.57-1 59.37-1.13a107.33 107.33 0 0119.85 1.69c15.6 2.85 20.9 10.66 18.68 27.3h-29.45zM628.57 187.18c.23.5.26.73.38.78 13.33 5.35 13.92 6.19 14.14 20.76.06 4.3 0 8.61 0 13.36h-30.85c0-4.45.27-8.88-.07-13.27-.44-5.86-3-8.7-8.82-8.78-18.11-.25-36.22-.09-54.91-.09v22.17h-30.89v-88.72c1.36-.1 2.78-.3 4.21-.3q47.65 0 95.32.17a56.73 56.73 0 019.92.74c9.64 1.75 15.23 7.14 16.36 16.77a130.33 130.33 0 01.46 20.35c-.39 9.53-6.04 14.64-15.25 16.06zm-80.11-10.34c.55.28.84.55 1.14.55 18.77-.1 37.55-.11 56.33-.5a8.39 8.39 0 006-3.61c5.14-8.87.12-17.83-9.94-17.93-16.62-.18-33.24-.1-49.87-.1a33.54 33.54 0 00-3.63.38zM874 166.91h77.38v19.65h-77.38v14.3h82.28v21.35h-112.81v-88.77h112.21v20.4h-81.68zM203.43 200.61v21.52h-30.43v-88.63a24.69 24.69 0 013.21-.4c28.29 0 56.57-.1 84.85.26a86 86 0 0119.13 2.9c7.24 1.78 11.62 7 13.15 14.22a78.18 78.18 0 010 32.63c-1.69 7.89-6.81 13.31-14.64 14.59a240.26 240.26 0 01-30.2 2.8c-13 .46-25.95.11-38.92.11zm.33-22.64c17.74 0 35 .21 52.23-.11 6.07-.11 8-3.64 7.83-12-.12-7.14-2.06-9.85-8.15-10-13.94-.4-27.88-.46-41.83-.64-3.27 0-6.54 0-10.08 0zM438.05 92.36c2-1.4 3.12-2.28 4.32-3q46.19-28.12 92.41-56.17c1.73-1.05 4.07-2 5.94-1.75 17.28 2.46 34.45 5.76 50.28 13.67a45.2 45.2 0 0110.59 7.3c5.57 5.23 5.78 12 0 17a62.43 62.43 0 01-16 9.83c-20.78 8.66-42.88 11.69-65.09 13.76a436.63 436.63 0 01-77.21.11c-1.42-.11-2.82-.41-5.24-.75zM759.85 222.24h-32.72v-66.24h-45.13v-22.54h122.72v22.21h-44.87zM495.38 27.93l-54.49 33.24c-12.77 7.79-25.52 15.61-38.35 23.3-1.44.87-3.63 1.82-5 1.33-10.28-3.67-20.45-7.66-30.63-11.64a13.68 13.68 0 01-3.28-2.25c-9-7.18-9.07-15.11.22-22.09 10.47-7.87 22.88-11.34 35.35-14.24 30.81-7.18 62.14-9 93.67-8.2a19.87 19.87 0 012.51.55z"/><path d="M513.54 23.71l-71.54-18.38.09-.59h126c-2.13 1.47-3.48 2.5-4.93 3.38q-65.52 40.11-131 80.27c-4.28 2.64-8.18 3.75-13 2.37-3.43-1-7-1.39-11.85-2.3zM472.71 273.44h-6.12c-.34-5.88-4.65-7.49-9.57-7.51-9.14 0-18.28.26-27.4.71-4.23.21-6.62 2.58-6.42 7.21.19 4.46 3.16 5.62 6.7 5.77 9 .4 18 .54 27 .82a61.7 61.7 0 019.44.6c5.34 1 7.91 4.32 8.2 9.78.35 6.5-1.58 9.93-6.92 11.75a21.3 21.3 0 01-6.33 1.25c-11.14.25-22.3.79-33.42.3-9.3-.41-12.18-4.31-11-12.78 3.51-.88 6.24-1.17 6.75 4 .15 1.47 3.12 3.74 4.84 3.78 11 .27 21.94.17 32.9-.13 4.41-.13 6.36-3 6.2-7.41s-3-6-6.92-6.05c-7.83-.14-15.65-.12-23.48-.29a86.78 86.78 0 01-10.94-.75c-6.71-1-9.67-4.32-9.9-10.43-.25-6.7 2.21-11 9.06-11.46a323.27 323.27 0 0138.25-.44c6.69.29 8.75 3.84 9.08 11.28zM590.69 261.39c16.44 0 32.39-.2 48.32.09 7 .13 10 2.72 11.29 7.76 1.9 7.58.21 12.53-5.86 16.39 8 4.26 4.82 11.64 5.64 18.6l-7 .33c0-3 .11-5.72 0-8.45-.26-5.79-2.12-8.11-7.76-8.23-12.44-.26-24.89-.08-38.06-.08v16.44h-6.52zm6.61 20.95c13.65 0 26.88.17 40.1-.08 5.09-.1 6.37-3.92 6.35-8.39s-1.82-7.39-6.64-7.51c-10.94-.25-21.89-.43-32.84-.62-2.25 0-4.51 0-7 0zM677.66 304.48v-43.27h51v4.44h-44v13.55h41.67c1.42 3.65.93 5.29-3 5.24-11-.12-22 0-32.95 0h-5.79v15.08h44.08c.43 2.81 1.32 5-2.63 5-15.9-.07-31.86-.04-48.38-.04zM306.42 304.21v-43.1h50.84v4.59h-43.86v13.69h41.73c1.23 3.67.41 5.08-3.13 5.05-11-.12-22 0-32.93 0h-5.73v15.2h31.6c3 0 6 .13 9 0 3.43-.18 4.63 1.08 3.3 4.64zM500.79 261h6.58v27.42c0 9.24 1 10.59 10.11 10.81 10.47.24 21-.2 31.43-.41 4.76-.09 6.76-2.67 6.73-7.35-.07-8.31.06-16.62.13-24.93 0-1.79.15-3.58.24-5.53h6.36c.11 2.18.33 4.27.31 6.36-.06 8.64 0 17.29-.34 25.92-.2 5.93-2.88 9.83-8.39 10-14.76.54-29.56.51-44.32.17-5.29-.13-8.59-4.09-8.75-9.3-.33-10.89-.09-21.83-.09-33.16zM240.38 299.56h41.29c.11 1.59.21 3 .33 4.65h-48.09v-43.11h6.47zM383.21 261.11h6.14v43h-6.14z"/></g></svg>