<svg xmlns="http://www.w3.org/2000/svg" fill-rule="evenodd" stroke-linejoin="round" stroke-miterlimit="2" clip-rule="evenodd" viewBox="0 0 964 310"><path fill="#2c2c2c" fill-rule="nonzero" d="M959 186.15c-3.5 0-6.5 1.3-9 3.5-2.5 2.1-4.7 4.5-7.1 6.6-1.7 1.5-3.5 3.1-5.5 4.3-3.1 2-6.8 1.4-9.4-1.2-1.4-1.4-2.6-3-4-4.5-.9-1-1.8-1.1-3.1-.5-12.1 5.5-24.9 8.2-38.2 8.7-10.1.4-20-.7-29.4-5.1-.6-.3-1.4-.2-2.1-.1-11.4 1.9-22.9 1.1-34.3.2-3-.2-6.1-.4-9.1-.4-.7 0-1.7.3-2.2.9-6.2 6.6-13.9 8.1-22.4 6.9-4.5-.6-8.6-2.2-12.3-4.9-.8-.6-1.4-1.5-1.8-2.4-2.1-5.7-3.7-11.6-3.4-17.8.1-3.2.8-6.4 1.3-10-2.8-.3-6-.8-9.2-.8-9.8.2-19.7.6-29.5.9-6.9.2-13.7-.2-21-1.8-.7 2.8-1.6 5.6-1.9 8.4-.7 6.7 1 13.2 2.4 19.7 1.1 5.2 1.8 10.4 2.6 15.6.1.6 0 1.3-.1 1.9-.8 5.9-2.2 7-8.4 6.3-4.7-23.2-10-46.4-8.2-70.6-.8 1.1-1.6 2.1-2.3 3.3-4.6 8.4-9.2 16.9-13.8 25.4-4.2 7.8-8.6 15.5-15.1 21.8-8.4 8.1-18.1 11-29.4 7-6.1-2.2-10.9-6.3-14.9-11.2-5.8-7-11.3-14.3-17-21.5-.5-.7-1.1-1.3-2.1-2.5-.8 2.7-1.8 4.8-1.9 7-.1 4.8.2 9.5.5 14.3.4 5.4 1.3 10.8 1.6 16.2.2 3.9-.9 7.6-4.3 10.2-2.2 1.7-3.3 1.4-4.2-1.2-2.3-6.4-2.9-13.1-3-19.8-.1-10.3-.1-20.7.1-31 0-3.8-.8-7.1-2.7-10.3-.8-1.4-1.6-2.8-2.2-4.3-1.3-3.4.9-7.1 4.5-7.5.5-.1 1.1.3 1.5.6 5.3 3.4 9.5 7.9 13.5 12.7 7.9 9.6 15.8 19.2 23.8 28.7 3.5 4.1 7.5 7.6 12.4 10.1s9.7 2.3 14.4-.6c4.6-2.8 8.1-6.8 11.3-11.1 7.3-10 12.7-21 17.5-32.3 3.9-9.3 7.5-18.7 11.3-28 1.3-3 2.8-6 4.6-8.7 1.7-2.6 4.3-4.1 7.9-4.3.2 2.7.6 5.4.5 8-.4 8.8-1 17.7-1.6 26.5-.2 3.5-.5 7-.9 10.4-.1 1.3.5 1.6 1.4 1.8 5.6 1 11.2 2.7 16.8 2.9 12.5.5 25 .2 37.5.3 2.7 0 5.4 0 8.2.2 1.6.1 2.3-.5 2.7-1.8 1-3.5 2-7.1 3-10.6.9-3 1.8-6.1 3.1-8.9 1.6-3.4 4.5-5.2 8.4-5.7 1.5 3.4 1.2 6.9.2 10.2-1.5 4.7-3.3 9.2-4.9 13.9-.3.8-.6 1.7-1.1 3.1 5.2 0 10 .1 14.8 0 3 0 6-.1 8.9-.5 3-.5 3.3-1.1 3.3-4.1-.2-15.5 2.3-30.4 9-44.4 4.3-9 10.1-16.9 19-21.9 3.9-2.2 8.1-3.5 12.6-2.4 2.9.7 5.1 2.4 6.6 5 5.6 10.3 5.7 21 2.7 32-3.1 11.2-8.9 21-15.1 30.7-1.1 1.7-2.2 3.4-3.3 5-.1.1 0 .2-.1.8h5.2c7.8.1 15.6-.1 23.3.4 4.8.3 9.6 1.2 14.3 2.4 3.7.9 6.8 3.1 9.1 6.9-5.4-.6-10.4-1.2-15.4-1.8-10.5-1.3-21.1-2.9-31.7-2.4-4.9.2-9.7.8-14.2 2.7-7.9 3.2-11.7 9.2-12.1 17.6-.1 1.7.8 2.3 2.3 1.5 1.4-.7 2.5-1.8 3.8-2.6 2-1.2 4-2.5 6.1-3.2 2.9-1 4-.2 4.6 2.8.3 1.6.5 3.3.8 5 .6 3.3 1.3 4.1 4.6 3.8 3.4-.3 6.8-1.3 10.3-2-.7-7.2 2.3-12.6 7.2-17.1 4.6-4.2 10.2-4.7 14.8-1.6 1.1.8 1.6 1.7 1.7 3 .5 5.9-1 11.1-4.7 15.8-.4.5-.7.9-1 1.4v.4c6.4 2.8 13.1 3.4 20 1.6 1.4-.4 2.7-.9 4-1.4 1.8-.7 2-1.5 1-3.1-1.1-1.7-2.4-3.2-3.4-5-1.2-2.1-1-3.8.5-5.1 2-1.8 6-1.2 7.5 1.3.7 1.2 1.2 2.4 1.6 3.7 1 3.4 3.7 4.2 6.8 4.3 2.8.1 4.7-1.1 6-3.5.4-.7.8-1.5 1.1-2.2 2.1-4 4.7-5.1 9.2-3.7 2.6.8 4.3 2.6 5.8 4.7 1 1.4 2 2.8 3.2 4.4 2.8-5.5 7.5-8 13-9.4 5.6-1.4 10.9-.6 16.1 1.6.2 0 .2.8.2 1.5zm-143-23.2c1.5-.1 2.7 0 3.8-.2 4.9-.7 8.9-3.4 12-7 10.4-12.1 16.2-26.3 17.4-42.2.4-5.4-1-10.5-5.3-14.4-2.3-2.1-2.7-2.1-5.3-.5-8.1 5-12.9 12.5-16.1 21.2-3.7 10-5 20.4-5.8 30.9-.3 4-.5 7.9-.7 12.2zm-38.8 5.8c-.3 4.9-.7 9.6-.8 14.3 0 5.6 1.2 10.8 5.3 14.9.9.9 2.3 1.6 3.6 1.8 7.2 1.1 13.2-2.1 18.9-6.1-3-8.5-.2-16.6 2-24.9h-29zm84.7 19c.6-1.6 1.2-2.9 1.6-4.3.3-.9.7-2.3.4-2.6-.8-.6-2-.6-3.5-1 .5 3-.7 5.6 1.5 7.9zm-47.6-17.3c1.6 1.7 3.3 2.2 3.9 1.1.4-.7.3-2.4-.2-2.7-1.8-1.2-2.6.6-3.7 1.6zM222.2 248.25c0-.9.1-1.8.1-2.7V61.75h2.9v183.8c0 .9.1 1.8.1 2.7h-3.1zM180.9 220.95h-34v-72.6c0-9.3-4.4-14.9-13.6-16.7-1.7-.3-2.1-1-2.1-2.6.1-8.2 0-16.4 0-24.6v-1.9c3.7 0 7.4-.3 10.9.1 9.2.8 17.8 3.4 25.2 9.2 8.9 7 13.4 16.4 13.5 27.4.3 26.6.1 53.3.1 79.9v1.8zM38.8 220.95H5v-80.6c0-15.8 8.6-28.6 23.4-34.4 7.8-3.1 16-4.2 24.4-4 1.4 0 1.9.4 1.9 1.9-.1 8.5-.1 17.1 0 25.6 0 1.5-.7 1.8-1.9 2-6.3 1.3-11.2 4.3-13.3 10.8-.4 1.3-.6 2.8-.6 4.2v71.8c-.1.8-.1 1.6-.1 2.7zM73.6 144.95h38.5v75.8H73.6zM348.3 162.85c4.7.2 8.8.5 13 .4 13.4-.3 26.8-.9 40.2-.9 10.9 0 21.7.4 32.6.9 4.4.2 8.9.9 13.2 1.8 4.1.9 7.6 2.9 9.4 7.4-3.8-.5-7.4-1.1-11.1-1.4-11.9-.8-23.9-1.7-35.8-2.2-7.8-.4-15.7-.3-23.5-.3-12.8 0-25.6.1-38.5.2-.6 0-1.4.6-1.6 1.1-2.6 8.2-2.7 16.4.1 24.5 1.4 3.9 4.1 5.9 8.3 5.4 3.5-.4 7-.7 10.4-1.4 4-.8 5.4-2.7 5.8-6.8.2-2.6.2-5.2.4-7.7.4-4 2.6-6.6 6.2-7.2.1.4.3.8.4 1.2 1 3.2 3.1 4.9 6.4 5.4 2 .3 4.1.6 6.1 1.1 2.1.5 3.2 2 2.9 4.2-.3 2.3-.7 4.6-1.2 6.8-.8 3.5 1.2 7 4.6 7.8.3.1.5.1.8.2 3.5.7 3.1.7 1.7 3.8-1.1 2.6-2.7 4-5.4 4.2-3.4.3-6.7-.2-9.2-2.6-.8-.8-1.2-2.3-1.2-3.5-.1-2.2.2-4.5.2-6.8 0-.8-.1-1.6-.3-2.3-.6-2.4-2.6-3.2-4.6-1.9-3.1 2.1-6 4.4-9 6.7-4.2 3.3-8.5 6.1-14.1 6.3-9.7.3-17.2-4.9-20.6-14.5-2.6-7.3-2.4-14.7-.6-22.2.1-.6.3-1.1.4-1.9-4.1.3-8.1.7-12.1 1-17.9 1.2-35.8 1.6-53.6-2.1-2.8-.6-5.6-1.5-8.4-2.4-.5-.2-1.1-1-1.2-1.5-.2-1.5-.1-2.9-.1-4.7 4.1.4 8 .6 11.9 1.1 19.3 2 38.5 3.9 57.9 3.3 1.7-.1 3.5-.4 5.2-.3 1.9.1 3-.7 3.5-2.3 1.2-3.7 2.3-7.4 3.5-11.1.9-2.7 1.7-5.5 2.9-8 1.5-3.2 4.2-5.2 7.9-5.8 1.5 2.7 1.4 5.5.7 8.3-1 3.9-2.4 7.6-3.4 11.5-.4 2.2-.7 4.6-1.1 7.2zM520.2 170.65c-.6 2.3-1.3 4.3-1.6 6.5-.8 6.1 1.5 10.9 6.6 14.3 7.7 5.1 20.6 5.3 27.5.6-1-4.2-2.1-8.2-2.8-12.3-.6-3.5 0-7 1.5-10.2 2.7-5.7 7.7-7 12.9-6.7.5 0 1.2.6 1.5 1 2 2.5 2.4 5.3 2 8.4-.4 2.6-.6 5.1-.9 7.7-.2 1.5.2 2.8 1.5 3.8 2.2 1.8 4.4 3.6 6.7 5.3.7.6 1.4 1.1 2.2 1.7 9.5 7.1 4.7 18.7-3.5 21.9-7.4 2.9-14.7-1.2-16.3-9.2 2.2-1.6 4.4-1.5 6.9-.4 2.2 1 4.6 1.6 6.9 2.3.4.1.9 0 1.3-.1 1-3.1.2-5.6-2.3-7.4-1.1-.8-2.4-1.3-3.5-2.1-1.4-1-2.6-2.2-4.1-3.4-4.4 4.4-10 6.8-16.3 7.6-14.8 1.8-28.6-.8-40.8-9.8-3.1-2.3-3.3-2.6-6.3-.2-2.5 2.1-4.9 4.5-6.9 7-4.8 6.1-10.9 8.2-18.4 6.7-.8-.2-1.8-.9-2.2-1.7-3.1-5.9-7.1-10.9-13.8-12.8-2.2-.6-4.4-.9-6.6-1.4-.4-2.6.8-5.1 3.2-6.4 3.1-1.6 6.4-1.5 9.7-1.2.5 0 1 .6 1.4.9 3.7 3.3 6.1 7.4 6.8 12.5 2.3.1 4.2-.7 5.6-2.2 1.4-1.6 2.5-3.6 3.9-5.3 1.3-1.7 2.6-3.3 4.1-4.9.9-1 2.1-1 3.4-.4 6.5 2.9 12.4 1.9 17.7-3.1 3.2-3 6.6-5.9 11.1-6.8.3-.1 1.1-.1 1.9-.2zM62.2 101.95h60.4v29.4H62.2z"/><path fill="#2c2c2c" fill-rule="nonzero" d="M737.9 174.15c1.4 0 2.9.1 4.3 0 2-.1 3 .8 3.9 2.5 2.4 4.9 2.8 10 2.5 15.3-.1 2.3.4 3.3 2.7 3.6 2 .3 4.1 0 6.1-.2 1.8-.2 3.6-.8 5.3-.9.9-.1 2.2.3 2.7.9.4.5.1 2.1-.4 2.6-1.3 1.3-2.7 2.6-4.4 3.2-4.2 1.5-8.6 1.2-12.8.3-3.6-.8-6.9-2.3-10.4-3.4-.6-.2-1.5-.1-2.1.2-6.4 2.7-12.9 3.6-19.7 1.3-3.9-1.3-4-1.5-4-5.6.1-10.9 6.3-17.8 17.7-19.4 2.8-.4 5.7-.5 8.5-.7.1.1.1.2.1.3zm-14.4 19.4c3.6.9 7.1-.3 8.8-3.5 1.7-3.1 2.9-6.4 4.3-9.7-8.2-1.4-13.2 4-13.1 13.2zM460.5 195.75c-.6 2.9-2.5 4.5-5 5-3.4.7-6.9 1.2-10.3 1.1-5.2-.2-10.3-1.2-14.9-3.8-.5-.3-1.5 0-2.1.2-5.8 2.6-11.8 3.4-17.7 1-6.8-2.8-6.9-3.5-5.2-10.2 2.1-8.1 8.1-12.3 15.9-14.2 5.5-1.3 10.9-.9 16.3.7 1.4.4 1.8.9 1.8 2.4.1 2.4.3 4.9 1 7.2 2.3 7.8 9.7 12.2 17.8 10.9.7 0 1.5-.1 2.4-.3zm-31.2-15.3c-4.7-1.6-9.6.7-10.8 5.3-.6 2.1-.4 4.5-.5 6.7-.1 1.1.6 1.4 1.6 1.4 3.1-.1 5.3-1.5 6.5-4.3 1.1-3.1 2.1-6.1 3.2-9.1zM536.5 130.45c-.4 3.9-1 4.6-4.7 5.3-3.2.5-6.4.5-9.5-.7-1.2-.4-1.9-1.1-1.9-2.5 0-3.3.3-6.4 2.2-9.2 3.4-4.9 9.8-4.5 12.3.9.8 1.9 1.1 4.1 1.6 6.2z"/></svg>