<svg
  xmlns="http://www.w3.org/2000/svg"
  fill="#2c2c2c"
  fill-rule="evenodd"
  stroke-linejoin="round"
  stroke-miterlimit="2"
  clip-rule="evenodd"
  version="1.1"
  viewBox="0 0 24 24"
  xml:space="preserve"
>
  <path
    fill-rule="nonzero"
    d="M6.73702573 7.45872666c.48031354 0 1.05099966.09093043 1.72586529.28562198.67500509.1941337 1.01250763.28506414 1.02533831.28506414.09093044 0 .142811-.06471123.142811-.19469155v-.25940279h.15564166v2.66083102h-.15564167l-.03904988-.12998032c-.16847234-.5321941-.3631639-.97345775-.58407465-1.32365151-.2203529-.35033322-.466925-.61029386-.73971632-.76593553-.27223346-.15564167-.5186661-.25940278-.75240753-.31128334-.23374144-.05188055-.50653275-.07809976-.80498541-.07809976-.81725823 0-1.42741263.40221378-1.84245708 1.22002986-.4156023.81767662-.62312453 1.90772616-.62312453 3.28325823 0 3.01116424.752547 4.51681609 2.27089006 4.51681609.59746318 0 1.0253383-.15564167 1.28529894-.46748287.25940279-.31128334.38924364-.81781608.38924364-1.51848252v-1.9986566c0-.16847235-.02607974-.27223346-.06512962-.31128334-.0386315-.03904988-.142811-.06526909-.31128334-.06526909h-.25940278v-.15564167h5.14663488v.15564167h-1.90228707c-.16847235 0-.27279131.0262192-.31128334.06526909-.03904988.03904988-.06526909.142811-.06526909.31128334v1.27191041c0 .84333798-.37599457 1.5317316-1.11626875 2.06336784-.73971632.5321941-1.66115405.79215473-2.76403427.79215473-1.31082083 0-2.40087038-.44126366-3.25773634-1.32379097-.85616865-.88294571-1.28460163-1.9986566-1.28460163-3.3358361 0-1.32365152.45409433-2.43992027 1.3627014-3.3351388.90818866-.89535799 2.03770647-1.35001017 3.37432812-1.35001017v.01338853z"
  />
  <path
    fill-rule="nonzero"
    d="M14.32999014 3.67520314c-.16847235 0-.27223346.0262192-.31128334.06471123-.03904988.03904988-.06471123.142811-.06471123.3118412v15.87084798c0 .1690302.02566135.27279131.06471123.3118412.03904988.03849202.142811.06471122.31128334.06471122h1.37567153c.37641296 0 .7139155-.07809976 1.01236817-.23374143.29845266-.15564167.51936342-.35033322.66217441-.58407465.142811-.23318358.24657211-.466925.31128334-.68783577.06471123-.2203529.10376112-.41504445.10376112-.58393518v-.12942247h.15564167v2.38748185h-6.87807873v-.15564167h.25940278c.16847235 0 .27279132-.02566135.31128334-.06471123.03904988-.03904988.06526909-.142811.06526909-.31128334V4.06458624c0-.1690302-.0262192-.27279131-.06526909-.31128334-.03849202-.03904988-.142811-.06526909-.31128334-.06526909h-.25940278v-.15564167h3.5037506v.15564167l-.24657211-.01283067z"
  />
  <path
    fill-rule="nonzero"
    d="M21.79194787 9.97621875v-.12942246c0-.20808009-.03849202-.42843299-.1037611-.64934374-.06471124-.2203529-.16847235-.44126366-.31128335-.67486563-.142811-.23318358-.3631639-.42787513-.66217441-.57068612-.29845267-.142811-.63581575-.22091076-1.01181032-.22091076h-1.63563217c-.16847234 0-.27223345.0262192-.31128334.06526909-.03904988.03849202-.06471123.14225314-.06471123.31128334v3.81545232h1.24569121c.32467187 0 .59690533-.05188055.81781609-.142811.2203529-.09093043.38924364-.2203529.49300475-.3893831.10376111-.16847234.18186087-.324114.2203529-.48017407.03904988-.15564167.06526909-.32411401.06526909-.49314421v-.25940279h.15564167v3.68561147h-.15564167v-.25940278c0-.16847234-.01338853-.33750254-.05188056-.49314421-.03904988-.15564167-.10376111-.31128334-.20794062-.48031354-.10376111-.16847235-.25940278-.29845267-.47975568-.3893831-.22091076-.09093044-.49370207-.142811-.81781608-.142811h-1.24624907v4.02367187c0 .16847235.0262192.27223346.06526909.31128334.03849202.03904988.14281099.06471123.31128333.06471123h.25940279v.15564167h-3.5037506v-.15564167h.25940279c.16847234 0 .2727913-.02566135.31128333-.06471123.03904989-.03904988.0652691-.142811.0652691-.31128334V8.10754247c0-.1690302-.02621921-.27279132-.0652691-.31128334-.03849202-.03904988-.14281099-.06526909-.31128333-.06526909h-2.45010112v-.15564167h9.3287377v2.3880397l-.20808009.01283068z"
  />
</svg>
